<?xml version="1.0" encoding="utf-8"?>
<!-- Generator: Adobe Illustrator 16.0.0, SVG Export Plug-In . SVG Version: 6.00 Build 0)  -->
<!DOCTYPE svg PUBLIC "-//W3C//DTD SVG 1.1//EN" "http://www.w3.org/Graphics/SVG/1.1/DTD/svg11.dtd">
<svg version="1.1" id="Layer_1" xmlns="http://www.w3.org/2000/svg" xmlns:xlink="http://www.w3.org/1999/xlink" x="0px" y="0px"
	 width="300px" height="150px" viewBox="0 0 300 150" enable-background="new 0 0 300 150" xml:space="preserve">
<g>
	<path fill-rule="evenodd" clip-rule="evenodd" fill="none" d="M9.351,133.036c0-38.437,0-76.874,0-115.311
		c94.1,0,188.2,0,282.301,0c0,38.438,0,76.875,0,115.311C197.551,133.036,103.451,133.036,9.351,133.036z M99.104,77.418
		c-0.27,0.627-0.54,1.255-0.81,1.882c-0.115,0.272-0.23,0.545-0.346,0.817c-0.704,1.484-1.422,2.963-2.107,4.456
		c-0.465,1.017-0.931,2.017-2.522,2.489c1.721,0,2.958,0,4.372,0c-0.639-0.348-1.107-0.603-1.769-0.963
		c0.505-1.24,0.975-2.395,1.419-3.485c1.879,0,3.587,0,5.366,0c0.438,1.249,0.853,2.429,1.275,3.631
		c-0.552,0.329-0.9,0.537-1.43,0.854c1.817,0,3.408,0,4.998,0c-1.47-0.467-1.956-1.716-2.428-2.963
		c-0.948-2.505-1.875-5.017-2.828-7.519c-0.411-1.079-0.868-2.14-1.476-3.629c-0.563,1.486-0.964,2.549-1.366,3.611
		C99.337,76.872,99.221,77.146,99.104,77.418z M152.231,85.82c-0.517,0.25-1.011,0.596-1.556,0.734
		c-2.983,0.762-5.156-0.26-5.17-3.442c-0.012-2.632-0.012-5.263,0.005-7.894c0.002-0.297,0.148-0.594,0.238-0.927
		c0.566-0.157,1.062-0.295,1.557-0.433c-0.011-0.05-0.022-0.101-0.034-0.15c-1.847,0-3.694,0-5.81,0
		c0.821,0.294,1.385,0.498,2.097,0.754c0,1.921-0.035,3.773,0.012,5.624c0.034,1.339,0.024,2.713,0.327,4.002
		c0.203,0.865,0.761,1.793,1.435,2.375c1.911,1.649,5.195,1.387,7.166-0.41c0.375-0.625,1.02-1.227,1.08-1.881
		c0.231-2.533,0.271-5.084,0.396-7.627c0.032-0.63-0.066-1.367,0.229-1.852c0.274-0.452,0.992-0.634,1.561-0.961
		c-1.504,0-2.931,0-4.611,0c0.814,0.294,1.377,0.498,2.049,0.741c0,2.646-0.033,5.197,0.013,7.744
		C153.236,83.533,153.051,84.753,152.231,85.82z M142.976,62.295c-0.517,0.25-1.011,0.597-1.557,0.735
		c-2.982,0.76-5.155-0.261-5.17-3.443c-0.012-2.631-0.012-5.263,0.005-7.894c0.002-0.298,0.149-0.594,0.238-0.928
		c0.561-0.156,1.059-0.294,1.558-0.433c-0.012-0.049-0.023-0.1-0.035-0.15c-1.847,0-3.694,0-5.809,0
		c0.82,0.295,1.385,0.498,2.097,0.754c0,1.921-0.035,3.774,0.012,5.623c0.034,1.34,0.024,2.713,0.327,4.003
		c0.203,0.865,0.761,1.792,1.435,2.374c1.911,1.651,5.196,1.388,7.166-0.409c0.375-0.626,1.02-1.227,1.08-1.881
		c0.231-2.533,0.272-5.084,0.397-7.628c0.032-0.629-0.066-1.367,0.228-1.852c0.274-0.452,0.993-0.634,1.562-0.961
		c-1.504,0-2.931,0-4.612,0c0.813,0.295,1.376,0.499,2.048,0.741c0,2.647-0.032,5.197,0.013,7.744
		C143.981,60.008,143.794,61.228,142.976,62.295z M40.006,62.295c-0.518,0.25-1.011,0.597-1.557,0.735
		c-2.983,0.76-5.155-0.261-5.17-3.444c-0.012-2.63-0.012-5.262,0.005-7.893c0.002-0.298,0.149-0.594,0.238-0.928
		c0.561-0.156,1.059-0.294,1.558-0.433c-0.012-0.049-0.023-0.1-0.035-0.15c-1.847,0-3.694,0-5.809,0
		c0.816,0.293,1.383,0.498,1.889,0.679c0.086,0.327,0.175,0.51,0.178,0.694c0.019,1.667-0.011,3.337,0.041,5.004
		c0.042,1.34,0.025,2.713,0.328,4.003c0.203,0.865,0.76,1.792,1.434,2.374c1.911,1.651,5.196,1.388,7.166-0.409
		c0.376-0.626,1.02-1.227,1.08-1.881c0.232-2.533,0.272-5.084,0.398-7.628c0.031-0.629-0.067-1.367,0.228-1.852
		c0.274-0.452,0.993-0.634,1.562-0.961c-1.504,0-2.931,0-4.612,0c0.809,0.292,1.374,0.498,2.048,0.741
		c0,2.647-0.033,5.197,0.013,7.744C41.012,60.008,40.824,61.228,40.006,62.295z M142.976,37.999
		c-0.517,0.25-1.011,0.597-1.557,0.735c-2.982,0.76-5.155-0.261-5.17-3.444c-0.012-2.63-0.012-5.262,0.005-7.893
		c0.002-0.298,0.149-0.594,0.238-0.928c0.561-0.156,1.059-0.294,1.558-0.433c-1.502-0.213-2.973-0.217-4.443-0.21
		c-0.379,0.002-0.757,0.04-1.362,0.074c0.782,0.281,1.347,0.483,2.058,0.74c0,1.922-0.035,3.774,0.012,5.623
		c0.034,1.34,0.024,2.713,0.327,4.003c0.203,0.865,0.761,1.792,1.435,2.374c1.911,1.651,5.196,1.388,7.166-0.408
		c0.375-0.626,1.02-1.228,1.08-1.882c0.231-2.533,0.272-5.084,0.397-7.628c0.032-0.629-0.066-1.367,0.228-1.852
		c0.274-0.452,0.993-0.634,1.562-0.961c-1.504,0-2.931,0-4.612,0c0.813,0.295,1.376,0.499,2.048,0.741
		c0,2.647-0.032,5.197,0.013,7.744C143.981,35.711,143.794,36.931,142.976,37.999z M20.921,73.968
		c1.044,0.068,2.062,0.193,2.699,1.36c0,2.972,0.013,6.055-0.011,9.138c-0.005,0.624,0.017,1.354-0.288,1.837
		c-0.242,0.382-0.965,0.459-1.67,0.754c1.669,0,3.101,0,4.78,0c-0.809-0.295-1.373-0.502-1.962-0.718c0-3.366,0-6.597,0-10.14
		c3.147,3.758,5.887,7.49,9.152,11.257c0.08-4.662-0.05-8.88,0.082-13.092c0.761-0.22,1.271-0.367,1.782-0.515
		c-0.009-0.047-0.018-0.095-0.027-0.144c-1.463,0-2.927,0-4.391,0c0.256,0.23,0.544,0.257,0.81,0.349
		c0.291,0.102,0.56,0.263,0.905,0.432c0,3.056,0,6.087,0,9.538c-2.874-3.657-5.51-7.014-8.103-10.315c-1.324,0-2.541,0-3.758,0
		c-2.401,0-4.803,0-7.53,0c0.889,0.315,1.457,0.516,2.006,0.711c0,4.094,0,8.044,0,12.035c-0.619,0.184-1.135,0.338-2.021,0.601
		c2.759,0,5.085,0,7.678,0c-0.825-0.294-1.394-0.499-1.977-0.708c0-4.031,0-7.928,0-12.023C19.723,74.2,20.322,74.083,20.921,73.968
		z M29.405,65.995c-5.354,0-10.709,0-16.125,0c0,0.373,0,0.658,0,1.031c5.416,0,10.771,0,16.125,0
		c0.512,0.021,1.024,0.061,1.537,0.061c44.256,0.003,88.511,0.002,132.767,0.002c0.564,0,1.129,0,1.754,0c0-0.436,0-0.721,0-1.157
		c-0.754,0-1.445,0-2.14,0c-43.934,0-87.868,0-131.803,0.003C30.815,65.936,30.11,65.975,29.405,65.995z M27.863,41.699
		c-4.841,0-9.682,0-14.583,0c0,0.374,0,0.658,0,1.031c4.901,0,9.742,0,14.583,0c0.513,0.021,1.025,0.061,1.537,0.061
		c44.641,0.003,89.282,0.002,133.922,0.002c0.565,0,1.129,0,1.755,0c0-0.436,0-0.72,0-1.157c-0.751,0-1.444,0-2.14,0
		c-44.32,0-88.64,0-132.96,0.003C29.273,41.639,28.567,41.679,27.863,41.699z M21.307,90.551c0.448,0.021,0.896,0.061,1.345,0.061
		c3.984,0.004,7.968,0.003,11.952,0.003c4.048,0,8.096,0,12.145,0c3.983,0,7.968,0,11.951,0c3.984,0,7.968,0,11.951,0
		c3.984,0,7.968,0,11.952,0c4.048,0,8.097,0,12.145,0c3.984,0,7.968,0,11.952,0s7.968,0,11.952,0c4.048,0,8.098,0.067,12.144-0.02
		c3.942-0.083,7.878,0.117,11.822,0.059c8.48-0.128,16.963-0.038,25.445-0.045c0.303,0,0.607-0.076,0.955-0.122
		c-0.036-0.382-0.063-0.67-0.1-1.041c-10.531,0-20.928,0-31.575,0c-0.488-0.878-0.997-1.788-1.504-2.699
		c0.413-0.1,0.826-0.199,1.238-0.299c4.052-1.793,5.172-7.921,1.583-11.38c-1.36-1.311-3.065-2.023-4.905-1.742
		c-3.459,0.53-5.405,2.813-5.897,5.937c-0.376,2.382,0.625,5.811,3.49,7.344c1.385,0.742,2.632,1.738,4.288,2.852
		c-1.129,0-1.822,0-2.515,0c-36.565,0-73.131,0-109.696,0.004c-0.706,0-1.411,0.039-2.116,0.06c-2.656,0-5.312,0-8.028,0
		c0,0.374,0,0.657,0,1.03C15.995,90.551,18.65,90.551,21.307,90.551z M244.314,25.116c-0.062,0.235-0.101,0.415-0.156,0.589
		c-0.885,2.755-2.251,3.436-4.958,2.451c-0.839-0.306-1.658-0.672-2.494-0.986c-4.054-1.523-8.149-2.484-12.567-1.847
		c-4.167,0.6-7.701,2.252-10.624,5.245c-4.671,4.783-5.764,11.816-2.427,17.687c1.558,2.739,3.819,4.836,6.418,6.54
		c2.461,1.614,5.007,3.103,7.552,4.587c3.371,1.968,6.787,3.861,10.163,5.822c1.797,1.043,3.292,2.431,4.47,4.159
		c3.686,5.41,1.758,12.122-4.234,14.756c-3.511,1.543-7.167,1.51-10.732,0.575c-6.203-1.626-10.521-5.382-12.121-11.828
		c-0.442-1.783-0.907-3.561-1.373-5.393c-0.444,0.029-0.858,0.056-1.23,0.08c0,7.133,0,14.11,0,21.087c0.485,0,0.862,0,1.372,0
		c0.049-0.315,0.064-0.623,0.145-0.913c0.624-2.258,1.469-2.809,3.774-2.459c0.314,0.049,0.621,0.155,0.929,0.248
		c1.839,0.549,3.68,1.09,5.513,1.654c3.957,1.218,7.936,1.811,12.112,1.236c4.708-0.646,8.7-2.504,11.899-6.014
		c4.54-4.982,5.573-11.801,2.331-17.769c-1.604-2.95-3.993-5.185-6.854-6.877c-4.797-2.836-9.65-5.571-14.458-8.387
		c-2.825-1.654-5.588-3.406-7.924-5.744c-3.338-3.337-3.122-8.36-0.082-11.602c2.505-2.673,5.596-3.607,9.188-3.515
		c6.097,0.158,12.064,4.051,14.268,9.736c0.982,2.535,1.545,5.232,2.323,7.949c0.251,0,0.668,0,1.145,0c0-7.053,0-14.03,0-21.07
		C245.234,25.116,244.864,25.116,244.314,25.116z M107.4,124.654c-31.442,0-62.776,0-94.075,0c0,1.054,0,1.982,0,2.882
		c91.79,0,183.462,0,275.134,0c0-1.033,0-1.963,0-3.011c-59.956,0-119.807,0-179.767,0c0.768-0.714,1.966-0.377,2.487-1.507
		c-1.006-0.058-2.045,0.164-2.47-0.938c0.64-0.563,1.695,0.392,2.082-0.896c-0.293-0.139-0.661-0.469-0.894-0.392
		c-0.988,0.323-1.84,0.864-2.126,1.938c0.245,0.321,0.439,0.575,0.637,0.835C108.108,123.891,107.816,124.205,107.4,124.654z
		 M174.836,87.422c8.958,0,17.73,0,26.563,0c-0.029-0.527-0.052-0.942-0.079-1.452c-1.162,0-2.202,0.127-3.201-0.022
		c-4.016-0.601-5.514-2.373-5.557-5.611c-0.01-0.836-0.025-1.671-0.025-2.506c-0.001-13.879-0.001-27.757,0.002-41.636
		c0-0.899-0.009-1.8,0.051-2.697c0.25-3.803,2.235-5.687,6.031-5.743c0.886-0.013,1.771-0.001,2.703-0.001c0-0.576,0-0.99,0-1.46
		c-8.852,0-17.623,0-26.441,0c0,0.498,0,0.911,0,1.479c1.094,0,2.123-0.11,3.122,0.02c3.931,0.505,5.629,2.281,5.638,5.724
		c0.002,0.706,0.023,1.413,0.023,2.12c0.002,14.07,0.003,28.142-0.002,42.213c0,0.963,0.021,1.932-0.075,2.889
		c-0.337,3.342-2.323,5.15-5.7,5.241c-0.834,0.022-1.67,0.003-2.505,0.023c-0.177,0.005-0.35,0.104-0.548,0.167
		C174.836,86.571,174.836,86.945,174.836,87.422z M283.512,26.316c-8.955,0-17.727,0-26.561,0c0.027,0.526,0.049,0.942,0.076,1.458
		c1.162,0,2.199-0.12,3.2,0.021c3.877,0.548,5.499,2.255,5.558,5.604c0.015,0.835,0.026,1.67,0.026,2.505
		c0.001,13.878,0.002,27.756-0.001,41.634c-0.001,0.965-0.01,1.929-0.059,2.891c-0.207,4.146-2.897,5.496-5.796,5.549
		c-0.952,0.019-1.904,0.003-2.998,0.003c0.047,0.609,0.082,1.064,0.114,1.477c8.877,0,17.599,0,26.461,0
		c-0.044-0.538-0.081-0.993-0.121-1.483c-1.111,0-2.087,0.102-3.033-0.02c-3.832-0.49-5.687-2.241-5.673-5.697
		c0.003-0.771-0.023-1.543-0.023-2.313c-0.001-13.942-0.002-27.885,0.001-41.828c0-0.963-0.023-1.932,0.066-2.889
		c0.343-3.599,2.307-5.406,5.9-5.472c0.944-0.016,1.889-0.002,2.861-0.002C283.512,27.169,283.512,26.795,283.512,26.316z
		 M252.289,112.295c0.515-1.016,0.951-1.722,1.242-2.482c0.615-1.612,0.068-2.946-1.521-3.573c-1.314-0.519-2.662-0.793-4.117-0.319
		c-1.025,0.335-1.68,0.951-2.019,1.884c-0.259,0.712-0.346,1.489-0.465,2.243c-0.021,0.148,0.155,0.327,0.249,0.506
		c0.557-0.087,1.09-0.169,1.731-0.27c0.333,0.57,0.638,1.095,0.969,1.661c-0.521,0.24-0.86,0.524-1.215,0.541
		c-2.922,0.133-5.847,0.218-8.682,0.313c3.205-2.648,3.616-6.894,0.678-9.101c-2.952,2.017-3.433,5.523-4.951,8.397
		c-1.603,0.591-6.098,0.751-9.496,0.339c-0.564-6.36-1.515-8.322-3.853-9.395c-0.268,1.45-0.529,2.876-0.794,4.316
		c1.814,1.286,2.781,2.958,2.919,5.175c-1.932,0-3.716,0-5.432,0c-0.445-0.422-0.821-0.777-1.333-1.264
		c-0.183,0.972-0.357,1.715-0.458,2.469c-0.29,2.167,0.53,3.089,2.769,3.098c3.598,0.016,7.195,0.005,10.793,0.005
		c1.207,0,2.415,0,3.626,0c0.175,0.904,0.292,1.658,0.47,2.398c0.449,1.888,1.436,3.444,3.126,4.422
		c1.638,0.947,2.802,0.566,3.644-1.09c0.346-0.681,0.558-1.428,0.866-2.131c0.601-1.361,0.698-2.604-1.036-3.538
		c3.682-0.272,7.318,0.705,10.136-2.093c2.605,2.896,8.175,2.934,11.817,0.056c2.999,1.657,6.299,2.16,9.753,1.993
		c1.985-0.098,3.981-0.018,5.973-0.018c1.396,0,2.793,0,4.225,0c0-1.621,0.149-3.099-0.032-4.533
		c-0.336-2.659-0.883-5.292-1.299-7.94c-0.063-0.405-0.055-1.007,0.188-1.243c1.02-0.995,0.911-2.232,1.021-3.114
		c-1.161-0.924-2.102-1.673-3.179-2.531c-0.431,1.271-0.87,2.568-1.309,3.865c0.14-0.002,0.28-0.004,0.419-0.006
		c0.302,0.699,0.682,1.377,0.884,2.104c0.256,0.921,0.386,1.879,0.537,2.826c0.329,2.054,0.637,4.113,0.963,6.239
		c-4.017,0-7.841,0-11.679,0c-0.573-2.151-1.104-4.241-2.76-5.723c-2.145,1.032-2.529,1.374-3.836,3.826
		c-0.705,1.324-1.694,2.025-3.217,1.995c-1.605-0.032-3.214,0.01-4.818-0.02C253.374,112.577,252.963,112.43,252.289,112.295z
		 M58.881,114.897c1.171,0.433,2.23,0.882,3.326,1.212c1.071,0.323,2.179,0.527,3.29,0.788c0.48-4.633-0.563-8.229-2.838-10.045
		c-1.855,0.614-2.868,2.071-3.682,3.717c-0.581,1.175-1.413,2-2.804,2.003c-5.13,0.011-10.261,0.004-15.381,0.004
		c-0.643-2.101-0.178-4.458-1.974-6.234c-0.411,1.171-0.784,2.236-1.102,3.144c0.54,1.063,0.992,1.959,1.532,3.024
		c-5.444,0-10.628,0-15.863,0c-0.191-0.24-0.511-0.463-0.565-0.737c-0.751-3.846-1.465-7.699-2.2-11.613
		c-0.982,1.19-1.125,2.63-1.282,4.231c-3.535,1.304-5.001,4.33-6.107,7.811c1.492,0.272,2.868,0.526,4.429,0.813
		c0.856-0.712,1.775-1.475,2.735-2.271c0.268,1.062,0.475,2.11,0.797,3.121c0.76,2.388,1.579,2.974,4.033,2.974
		c9.384,0.003,18.767-0.026,28.15,0.021C55.503,116.868,57.481,116.686,58.881,114.897z M186.962,114.691
		c1.024,1.796,2.525,2.167,4.219,2.151c1.735-0.018,3.471-0.004,5.206-0.004c1.134,0,2.268,0,3.408,0
		c0.416-4.746-1.035-9.074-1.44-13.463c1.268-0.972,1.12-2.348,1.306-3.366c-1.104-0.874-2.051-1.623-3.169-2.508
		c-0.431,1.201-0.887,2.475-1.388,3.871c1.15,0.459,1.292,1.386,1.443,2.342c0.429,2.714,0.898,5.423,1.338,8.136
		c0.035,0.218-0.055,0.455-0.077,0.627c-2.814,0-5.502,0.005-8.188-0.016c-0.151-0.002-0.301-0.213-0.462-0.335
		c0.421-0.882,0.867-1.654,1.168-2.48c0.505-1.385,0.087-2.619-1.207-3.227c-1.269-0.595-2.609-1-4.08-0.594
		c-2.104,0.582-3.146,2.383-2.611,4.723c0.527-0.083,1.061-0.167,1.707-0.269c0.334,0.564,0.643,1.087,0.957,1.622
		c-1.613,0.777-8.996,1.041-12.538,0.519c-0.657-0.764-0.814-1.695-0.819-2.675c-0.006-1.929,0.055-3.859-0.043-5.783
		c-0.092-1.813-0.195-3.659-1.376-5.385c-0.566,1.232-1.067,2.318-1.521,3.305c0.979,1.759,0.941,1.76,0.998,3.61
		c0.079,2.625,0.117,5.259,0.363,7.871c0.245,2.59,1.332,3.458,3.903,3.472c2.313,0.014,4.628-0.005,6.941,0.005
		C183.177,116.85,185.211,116.453,186.962,114.691z M101.351,113.961c0.559-1.557,0.981-2.731,1.536-4.276
		c-2.765,0.763-5.185,1.431-7.607,2.1c-1.53-1.16-3.633-1.664-4.301-3.946c3.032-1.631,6.045-1.022,9.07-0.555
		c-0.651-2.728-3.416-4.331-6.068-3.715c-1.717,0.398-3.042,1.307-3.964,2.792c-1.244,2.002-0.847,4.014,0.296,6.117
		c-3.439,0-6.601,0-9.865,0c-0.764-2.426-0.764-4.846-0.915-7.26c-0.148-2.369-0.481-4.727-0.76-7.341
		c-1.78,1.998-1.91,3.934-1.472,6.128c0.32,1.604,0.396,3.338,0.166,4.954c-0.34,2.395-2.065,3.945-4.109,5.021
		c-2.08,1.094-4.248,2.024-6.392,2.993c-0.595,0.271-1.245,0.422-0.643,1.523c1.867-0.179,3.854-0.231,5.782-0.589
		c2.304-0.431,4.129-1.687,5.192-3.877c0.381-0.786,0.791-1.56,1.13-2.227c0.451,1.278,0.8,2.614,1.404,3.821
		c0.267,0.536,1.041,1.14,1.598,1.153c2.881,0.072,5.817,0.281,8.639-0.161C93.89,116.016,97.624,114.865,101.351,113.961z
		 M163.162,101.224c0.131,0.053,0.26,0.106,0.391,0.158c0.291,0.64,0.71,1.251,0.852,1.921c0.421,2.001,0.747,4.022,1.082,6.04
		c0.173,1.036,0.287,2.081,0.445,3.254c-0.85,0-1.482,0-2.115,0c-3.594,0-7.195-0.121-10.783,0.032
		c-4.179,0.179-6.08,1.394-7.039,5.135c1.381,1.318,3.407-0.018,5.173,1.336c-1.626,0.418-2.949,0.917-4.312,1.072
		c-1.83,0.206-3.702,0.418-5.514-0.249c-1.593-0.587-2.149-1.213-1.984-2.83c0.1-0.977,0.512-1.952,0.941-2.853
		c0.374-0.784,0.968-1.464,1.467-2.192c-0.202-0.129-0.32-0.267-0.409-0.25c-0.229,0.045-0.527,0.092-0.652,0.252
		c-1.34,1.716-2.666,3.462-3.297,5.575c-0.269,0.897-0.436,1.919-0.29,2.827c0.328,2.044,1.917,2.875,3.744,3.379
		c2.726,0.752,5.313-0.109,7.946-0.591c2.191-0.401,3.309-1.726,3.696-3.819c0.092-0.497,0.218-0.987,0.345-1.551
		c-0.505-0.314-0.958-0.599-1.752-1.094c5.807,0,11.236,0,16.878,0c-0.143-1.808-0.198-3.462-0.416-5.094
		c-0.33-2.466-0.785-4.917-1.156-7.378c-0.054-0.358-0.09-0.92,0.111-1.084c1.141-0.931,0.907-2.249,1.136-3.187
		c-1.128-0.915-2.104-1.708-3.19-2.589C164.022,98.719,163.592,99.971,163.162,101.224z M119.731,112.515
		c-1.271-4.731-0.451-9.71-1.772-14.378c-1.604,1.902-1.804,3.014-1.31,5.758c1.032,5.732-0.204,8.194-4.88,10.591
		c-2.08,1.065-4.215,2.025-6.377,3.059c0.008,0.182,0.02,0.427,0.044,0.933c1.624-0.138,3.199-0.291,4.778-0.4
		c3.429-0.236,5.673-2.072,7.03-5.136c0.188-0.428,0.403-0.845,0.558-1.166c0.369,1.176,0.677,2.344,1.103,3.465
		c0.431,1.136,1.277,1.663,2.552,1.617c1.86-0.068,3.724-0.018,5.587-0.018c0.61,0,1.219,0,1.763,0c0-1.685,0.147-3.112-0.031-4.498
		c-0.342-2.658-0.884-5.289-1.303-7.938c-0.064-0.41-0.082-1.031,0.157-1.25c1.073-0.977,0.875-2.249,1.051-3.16
		c-1.133-0.89-2.08-1.633-3.174-2.492c-0.427,1.229-0.875,2.515-1.319,3.792c0.464,0.393,0.797,0.676,1.167,0.989
		c0.545,3.358,1.096,6.742,1.664,10.232C124.605,112.515,122.374,112.515,119.731,112.515z M93.23,73.749c-1.488,0-2.683,0-3.869,0
		c-0.797,1.78-1.514,3.489-2.324,5.154c-0.812,1.669-1.237,3.553-2.633,5.251c-1.785-3.696-3.442-7.125-5.028-10.409
		c-1.338,0-2.429,0-3.834,0c2.047,0.634,2.055,0.634,2.067,2.467c0.011,1.605,0.003,3.211,0.002,4.816
		c-0.001,1.477-0.006,2.954-0.005,4.431c0,0.646-0.215,1.171-0.914,1.256c-1.098,0.133-2.254,0.177-3.094-0.667
		c-1.658-1.667-2.938-3.626-4.313-5.633c0.438-0.127,0.631-0.158,0.802-0.237c1.788-0.813,2.704-2.087,2.459-3.479
		c-0.244-1.39-1.523-2.75-3.232-2.822c-2.331-0.097-4.662-0.209-6.992-0.314c-0.003,0.085-0.007,0.17-0.011,0.255
		c0.564,0.205,1.129,0.411,1.77,0.645c0.001,4.059,0.158,8.004-0.087,11.975c-0.69,0.205-1.208,0.359-1.995,0.594
		c2.139,0,3.987,0,5.835,0c-0.021-0.043-0.042-0.086-0.061-0.127c-0.519-0.155-1.045-0.313-1.617-0.484c0-1.887,0-3.645,0-5.389
		c0.557,0,0.998,0,1.495,0c1.53,2.055,3.055,4.102,4.504,6.048c2.812,0,5.434,0,8.329,0c-0.825-0.292-1.395-0.495-2.013-0.715
		c0-3.47,0-6.835,0-10.517c1.89,3.942,3.648,7.612,5.508,11.494c1.698-3.797,3.302-7.383,4.906-10.971
		c0.295,2.749,0.311,5.419,0.284,8.088c-0.006,0.624,0.023,1.356-0.282,1.836c-0.247,0.387-0.973,0.468-1.687,0.768
		c2.061,0,3.885,0,5.961,0c-0.812-0.294-1.376-0.499-2.018-0.73c-0.011-4.059-0.157-8.006,0.079-11.975
		C91.921,74.146,92.44,73.989,93.23,73.749z M22.714,39.263c-2.125-0.566-2.171-0.614-2.177-2.784
		c-0.007-2.633-0.002-5.266-0.001-7.898c0-1.542,0.006-3.083,0.005-4.624c-0.001-0.996,0.432-1.572,1.482-1.609
		c0.221-0.008,0.439-0.123,1.021-0.296c-3.246,0-6.092,0-9.305,0c2.542,0.59,2.543,0.59,2.552,2.85
		c0.004,1.028,0.001,2.055,0.001,3.082c0,3.018-0.004,6.037,0.002,9.055c0.002,0.807-0.059,1.577-1.008,1.84
		c-0.395,0.109-0.812,0.138-1.218,0.203c0.007,0.061,0.014,0.122,0.021,0.182C16.963,39.263,19.839,39.263,22.714,39.263z
		 M97.832,63.561c-3.586-1.12-4.578-4.25-6.556-6.679c0.45-0.128,0.644-0.158,0.815-0.236c1.777-0.814,2.691-2.103,2.436-3.49
		c-0.243-1.322-1.438-2.72-3.244-2.803c-2.323-0.108-4.647-0.209-6.97-0.313c-0.003,0.086-0.006,0.172-0.009,0.258
		c0.563,0.206,1.126,0.412,1.788,0.653c-0.048,4.052,0.139,7.996-0.116,11.963c-0.689,0.204-1.206,0.357-1.97,0.583
		c2.099,0,3.928,0,6.145,0c-0.91-0.273-1.437-0.43-2.014-0.603c0-1.884,0-3.643,0-5.487c0.614,0.063,1.108,0.115,1.542,0.159
		c1.556,2.087,3.043,4.082,4.468,5.994C95.391,63.561,96.467,63.561,97.832,63.561z M166.19,63.572
		c-3.745-1.198-4.677-4.333-6.672-6.675c0.435-0.127,0.628-0.159,0.8-0.237c1.789-0.811,2.709-2.077,2.475-3.469
		c-0.248-1.484-1.646-2.783-3.214-2.839c-2.344-0.083-4.685-0.211-7.028-0.321c-0.005,0.085-0.01,0.169-0.015,0.253
		c0.565,0.203,1.132,0.407,1.775,0.637c0.076,4.052,0.052,7.995,0.03,11.945c-0.771,0.239-1.291,0.401-1.813,0.563
		c0.004,0.063,0.006,0.126,0.01,0.189c0.941,0,1.885,0,2.826,0c0.895,0,1.791,0,2.687,0c-1.731-0.637-1.744-0.642-1.764-2.312
		c-0.013-1.091-0.005-2.182,0.011-3.272c0.002-0.179,0.098-0.356,0.168-0.597c0.514,0.038,1.008,0.075,1.458,0.109
		c1.551,2.082,3.039,4.08,4.488,6.026C163.625,63.572,164.709,63.572,166.19,63.572z M22.85,54.325c0-0.821,0-1.525,0-2.229
		c0-0.74,0-1.479,0-1.995c-0.679,0.114-1.242,0.305-1.794,0.274c-0.492-0.026-0.963-0.33-1.458-0.452
		c-2.046-0.503-4.021,0.395-4.832,2.175c-0.782,1.715-0.292,3.388,1.48,4.686c0.928,0.679,1.961,1.212,2.934,1.832
		c0.535,0.341,1.082,0.683,1.554,1.104c0.714,0.636,0.738,1.52,0.438,2.318c-0.286,0.759-0.953,1.139-1.819,1.199
		c-1.739,0.119-3.295-0.816-4.121-2.571c-0.239-0.507-0.441-1.033-0.661-1.551c-0.07,0.025-0.14,0.05-0.21,0.075
		c0,0.769,0,1.538,0,2.306c0,0.789,0,1.579,0,2.482c1.34-0.857,1.34-0.857,2.447-0.526c0.49,0.148,0.973,0.333,1.473,0.437
		c1.933,0.4,4.232-0.765,4.961-2.487c0.761-1.799,0.229-3.565-1.564-4.863c-0.932-0.674-1.958-1.218-2.939-1.823
		c-0.436-0.268-0.893-0.509-1.301-0.815c-0.763-0.571-0.966-1.394-0.665-2.237c0.28-0.784,0.948-1.132,1.819-1.168
		c1.043-0.043,1.938,0.267,2.553,1.07C21.75,52.353,22.202,53.257,22.85,54.325z M61.039,80.034
		c-0.098-0.487-0.175-1.263-0.413-1.985c-1.557-4.727-6.757-6.298-10.432-2.996c-3.371,3.029-2.862,9.151,1.012,11.496
		c1.276,0.773,2.668,1.152,4.218,0.857C58.643,86.798,60.875,84.011,61.039,80.034z M40.232,26.595c0.72-0.249,1.22-0.42,1.946-0.67
		c-1.692,0-3.104,0-4.904,0c2.14,0.547,2.148,0.547,2.156,2.39c0.009,2.119,0.007,4.238-0.003,6.357
		c-0.001,0.387-0.066,0.773-0.131,1.489c-2.847-3.631-5.45-6.953-8.059-10.278c-1.231,0-2.441,0-3.728,0
		c0.953,0.438,1.831,0.842,2.555,1.175c0,4.025,0,7.732,0,11.505c-0.62,0.207-1.157,0.386-2.058,0.686c1.856,0,3.306,0,5.014,0
		c-0.817-0.293-1.383-0.497-1.989-0.714c0-3.363,0-6.608,0-10.16c3.061,3.799,5.964,7.403,8.869,11.007
		c0.11-0.057,0.221-0.114,0.332-0.171C40.232,35.057,40.232,30.901,40.232,26.595z M49.587,63.54c2.261,0,4.09,0,6.172,0
		c-0.813-0.293-1.378-0.499-2.059-0.745c0-1.434-0.009-2.774,0.006-4.115c0.004-0.374,0.074-0.746,0.123-1.201
		c0.645,0.127,1.2,0.283,1.766,0.34c2.334,0.238,4.289-1.21,4.611-3.386c0.278-1.882-1.049-3.486-3.3-4.024
		c-2.293-0.549-4.593-0.177-6.89-0.192c1.739,0.547,1.749,0.547,1.755,2.408c0.008,2.826,0.007,5.653-0.002,8.479
		c-0.001,0.565-0.059,1.129-0.094,1.754C51.061,63.058,50.542,63.227,49.587,63.54z M68.249,50.736c0,4.145,0,8.101,0,12.125
		c-0.62,0.205-1.16,0.384-2.081,0.689c3.811,0,7.199,0,10.605,0c0.183-0.651,0.347-1.236,0.511-1.82
		c-2.162,1.931-4.572,0.881-6.884,1.089c0-2.042,0-3.862,0-5.757c0.816,0,1.516-0.001,2.216,0c2.163,0.002,2.163,0.003,3.015,1.911
		c0-1.564,0-3.026,0-4.606c-0.83,1.916-0.83,1.917-2.827,1.924c-0.812,0.002-1.624,0-2.41,0c0-1.918,0-3.617,0-5.398
		c1.45,0,2.791,0.015,4.131-0.005c0.896-0.013,1.444,0.436,1.758,1.225c0.132,0.331,0.227,0.677,0.477,1.438c0-1.4,0-2.341,0-3.355
		c-3.458,0-6.837,0-10.216,0c-0.009,0.053-0.018,0.105-0.026,0.157C67.038,50.468,67.559,50.583,68.249,50.736z M118.94,50.892
		c1.079,0,1.981,0.079,2.865-0.017c1.779-0.192,3.116,0.225,3.536,2.181c0-0.938,0-1.875,0-2.864c-3.466,0-6.84,0-10.591,0
		c0.939,0.288,1.515,0.464,2.078,0.637c0,4.079,0,8.035,0,12.042c-0.616,0.208-1.139,0.384-1.992,0.671c3.767,0,7.154,0,10.519,0
		c0.174-0.563,0.336-1.048,0.465-1.54c0.024-0.094-0.084-0.223-0.131-0.335c-1.868,1.299-3.928,1.58-6.683,0.908
		c0-1.822,0-3.643,0-5.512c0.896,0,1.673,0.074,2.43-0.016c1.454-0.172,2.453,0.249,2.773,1.794c0-1.446,0-2.891,0-4.338
		c-0.412,0.774-0.515,1.772-1.691,1.779c-1.194,0.007-2.388,0.001-3.64,0.001c0-1.641-0.002-3.049,0.001-4.456
		C118.88,51.581,118.91,51.334,118.94,50.892z M166.273,78.066c-0.76,1.715-0.775,1.731-2.574,1.748
		c-0.883,0.009-1.766,0.002-2.701,0.002c0-1.863,0-3.563,0-5.4c1.352,0,2.623,0.042,3.891-0.012
		c1.146-0.048,1.814,0.464,2.135,1.524c0.065,0.216,0.178,0.419,0.324,0.757c0-1.117,0-2.048,0-2.938c-3.459,0-6.795,0-10.131,0
		c-0.004,0.046-0.006,0.092-0.01,0.138c0.531,0.136,1.061,0.271,1.771,0.453c-0.004,4.061,0.041,8.063-0.025,12.067
		c-0.77,0.233-1.291,0.392-2.223,0.673c3.814,0,7.201,0,10.675,0c0.022-0.65,0.708-1.156,0.313-1.926
		c-1.766,1.335-4.322,1.652-6.715,0.891c0-1.78,0-3.557,0-5.457c0.781,0,1.477-0.023,2.168,0.008
		c0.696,0.031,1.482-0.058,2.053,0.242c0.457,0.239,0.648,0.98,1.049,1.65C166.273,80.879,166.273,79.473,166.273,78.066z
		 M54.166,39.293c0.656-0.063,1.331-0.219,1.986-0.161c0.624,0.056,1.217,0.389,1.841,0.506c1.955,0.369,3.948-0.747,4.655-2.562
		c0.665-1.71-0.01-3.397-1.832-4.541c-0.541-0.34-1.103-0.645-1.651-0.973c-0.932-0.559-1.893-1.076-2.78-1.699
		c-0.761-0.535-0.941-1.378-0.679-2.234c0.244-0.794,0.879-1.234,1.696-1.39c1.65-0.317,3.239,0.477,3.969,2.028
		c0.258,0.547,0.422,1.138,0.754,2.051c0-1.833,0-3.286,0-4.931c-0.54,0.86-1.163,0.941-1.891,0.659
		c-0.477-0.186-0.955-0.385-1.45-0.498c-1.649-0.38-3.658,0.612-4.347,2.111c-0.673,1.464-0.234,3.157,1.218,4.249
		c0.814,0.613,1.749,1.064,2.622,1.6c0.815,0.501,1.714,0.914,2.412,1.546c1.302,1.179,0.897,3.194-0.748,3.707
		c-2.348,0.73-4.686-0.416-5.202-2.346c-0.109-0.408-0.277-0.802-0.573-1.646C54.166,36.671,54.166,38.104,54.166,39.293z
		 M67.01,99.414c-1.505,2.957,0.875,6.5,3.978,7.297c0.218-0.344,0.441-0.695,0.788-1.243c0.844,0.849,1.676,1.55,2.336,2.389
		c0.675,0.856,1.18,1.847,1.788,2.825c0.98-1.523,0.459-2.91-0.254-4.097C73.64,103.249,70.768,100.88,67.01,99.414z
		 M110.965,105.637c2.195,1.136,3.151,3.12,4.231,5.108c1.064-1.711,0.407-3.183-0.433-4.529c-1.7-2.725-4.09-4.731-6.938-6.188
		c-0.488-0.25-1.044-0.367-1.555-0.541c-0.856,2.022-0.365,4.138,1.334,5.612c0.788,0.684,1.721,1.201,2.625,1.818
		C110.547,106.365,110.736,106.035,110.965,105.637z M40.33,79.875c0-2.009,0-3.709,0-5.481c2.365,0.299,5.141-1.073,6.332,2.57
		c0-1.333,0-2.27,0-3.243c-3.463,0-6.83,0-10.463,0c0.823,0.293,1.394,0.497,2.044,0.729c0.04,4.05,0.074,7.998-0.01,11.953
		c-0.754,0.233-1.273,0.395-2.029,0.629c2.085,0,3.917,0,6.104,0c-0.876-0.279-1.401-0.446-1.988-0.634c0-1.968,0-3.851,0-5.837
		c1.695,0.308,3.884-1.003,4.459,1.829c0-1.46,0-2.919,0-4.378C44.15,80.773,42.001,79.537,40.33,79.875z M80.215,38.622
		c-0.725,0.204-1.231,0.347-1.738,0.489c0.01,0.05,0.02,0.1,0.029,0.15c1.849,0,3.698,0,5.866,0
		c-0.861-0.301-1.422-0.497-2.001-0.699c0-4.05,0-7.99,0-12c1.029,0.046,2.04-0.158,2.785,0.195
		c0.702,0.334,1.124,1.255,1.593,1.825c0-0.825,0-1.756,0-2.638c-3.747,0-7.375,0-11.064,0c0,0.564-0.011,1.009,0.003,1.454
		c0.014,0.451,0.052,0.901,0.097,1.638c0.935-2.559,1.237-2.679,4.431-2.249C80.215,30.677,80.215,34.571,80.215,38.622z
		 M124.069,39.264c-0.829-0.297-1.397-0.501-1.972-0.708c0-4.053,0-7.991,0-11.997c1.033,0.047,2.043-0.155,2.79,0.2
		c0.698,0.331,1.116,1.251,1.581,1.818c0-0.829,0-1.76,0-2.633c-3.75,0-7.377,0-11.062,0c0,0.567-0.011,1.013,0.003,1.457
		c0.015,0.449,0.053,0.897,0.1,1.641c0.917-2.55,1.231-2.696,4.521-2.241c-0.063,3.924,0.153,7.868-0.128,11.831
		c-0.689,0.193-1.194,0.335-1.698,0.477c0.01,0.052,0.02,0.103,0.03,0.155C120.083,39.264,121.933,39.264,124.069,39.264z
		 M156.106,39.075c-0.024,0.062-0.05,0.124-0.075,0.186c1.85,0,3.699,0,5.842,0c-0.844-0.297-1.408-0.496-1.982-0.699
		c0-4.056,0-7.995,0-12.002c1.031,0.047,2.042-0.155,2.789,0.199c0.699,0.332,1.118,1.252,1.584,1.82c0-0.827,0-1.759,0-2.634
		c-3.75,0-7.377,0-11.063,0c0,0.565-0.012,1.011,0.002,1.456c0.014,0.449,0.053,0.897,0.1,1.64c0.922-2.554,1.232-2.69,4.521-2.241
		c-0.063,3.926,0.152,7.869-0.127,11.834C157.047,38.814,156.577,38.944,156.106,39.075z M115.11,74.375
		c1.082,0.051,2.092-0.148,2.839,0.206c0.696,0.33,1.112,1.25,1.575,1.815c0-0.83,0-1.761,0-2.627c-3.752,0-7.38,0-11.06,0
		c0,0.569-0.012,1.016,0.003,1.462c0.014,0.447,0.054,0.892,0.103,1.647c0.888-2.539,1.225-2.724,4.42-2.264
		c0,3.893,0,7.787,0,11.762c-0.619,0.211-1.168,0.396-2.073,0.703c2.234,0,4.083,0,6.21,0c-0.833-0.295-1.399-0.496-2.017-0.715
		C115.11,82.369,115.11,78.479,115.11,74.375z M285.84,99.064c-1.269,1.533-2.049,3.051-1.59,5.086
		c0.939,4.167,1.676,8.381,1.018,12.697c-0.023,0.155,0.45,0.385,0.736,0.614c1.21-2.592,1.646-5.104,1.244-7.788
		C286.72,106.146,286.305,102.603,285.84,99.064z M203.871,117.428c1.129-2.791,1.565-4.255,1.37-6.048
		c-0.448-4.124-1.013-8.235-1.585-12.783c-1.33,2.058-2.014,3.696-1.519,5.754c1.014,4.212,1.521,8.487,1.018,12.829
		C203.402,117.267,203.577,117.326,203.871,117.428z M97.799,39.231c2.274,0,4.083,0,6.149,0c-0.815-0.297-1.383-0.502-2.053-0.746
		c0.086-4.05-0.125-7.998,0.128-11.963c0.698-0.199,1.208-0.345,1.72-0.49c-0.009-0.049-0.019-0.099-0.028-0.148
		c-1.848,0-3.695,0-5.905,0c0.898,0.307,1.459,0.499,2.04,0.697c0,4.051,0,8,0,12.009C99.229,38.784,98.707,38.947,97.799,39.231z
		 M126.384,73.893c0.024-0.062,0.049-0.125,0.073-0.186c-1.848,0-3.696,0-5.861,0c0.865,0.299,1.431,0.496,2.003,0.696
		c0,4.06,0,8.007,0,11.999c-0.611,0.21-1.117,0.383-1.886,0.646c2.117,0,3.921,0,5.984,0c-0.818-0.298-1.386-0.505-2.052-0.748
		c0.105-4.053-0.146-8,0.146-11.969C125.442,74.153,125.913,74.023,126.384,73.893z M102.929,63.5c2.071,0,3.901,0,6.119,0
		c-0.911-0.275-1.438-0.433-2.04-0.615c-0.032-0.666-0.082-1.231-0.084-1.798c-0.008-2.761-0.018-5.522,0.007-8.284
		c0.006-0.624-0.021-1.355,0.285-1.836c0.245-0.385,0.97-0.465,1.683-0.763c-2.062,0-3.884,0-5.969,0
		c0.824,0.295,1.391,0.499,2.033,0.729c0,4.056,0.148,8.003-0.083,11.973C104.188,63.116,103.668,63.274,102.929,63.5z
		 M34.293,119.394c-0.444,0.953-0.837,1.798-1.277,2.742c0.85,0.511,1.596,0.958,2.43,1.46c0.46-0.781,0.868-1.472,1.303-2.211
		c0.673,0.348,1.261,0.65,1.935,0.999c0.483-0.977,0.896-1.811,1.378-2.786c-0.843-0.514-1.575-0.96-2.375-1.446
		c-0.484,0.772-0.877,1.4-1.32,2.107C35.699,119.979,35.126,119.741,34.293,119.394z M18.635,96.103
		c-0.771-0.368-1.379-0.66-2.071-0.991c-0.446,0.904-0.837,1.697-1.291,2.617c0.847,0.538,1.618,1.029,2.47,1.572
		c0.482-0.879,0.867-1.58,1.273-2.32c0.671,0.39,1.248,0.725,1.921,1.114c0.488-0.981,0.902-1.817,1.386-2.791
		c-0.841-0.516-1.569-0.962-2.343-1.437C19.493,94.676,19.102,95.326,18.635,96.103z M168.207,84.637
		c-0.039-0.041-0.087-0.122-0.114-0.116c-0.081,0.021-0.156,0.075-0.233,0.116c0.038,0.041,0.086,0.122,0.113,0.116
		C168.056,84.732,168.129,84.678,168.207,84.637z M126.17,61.112c-0.038-0.041-0.087-0.123-0.114-0.116
		c-0.083,0.02-0.157,0.074-0.234,0.115c0.039,0.042,0.087,0.124,0.114,0.117C126.019,61.207,126.093,61.153,126.17,61.112z
		 M77.527,61.165c-0.04-0.077-0.082-0.158-0.124-0.238c-0.039,0.042-0.114,0.09-0.108,0.123c0.017,0.087,0.07,0.166,0.109,0.248
		C77.443,61.255,77.481,61.214,77.527,61.165z"/>
	<path fill-rule="evenodd" clip-rule="evenodd" fill="#038103" d="M244.314,25.116c0.55,0,0.92,0,1.366,0c0,7.04,0,14.017,0,21.07
		c-0.477,0-0.894,0-1.145,0c-0.778-2.716-1.341-5.414-2.323-7.949c-2.203-5.685-8.171-9.578-14.268-9.736
		c-3.593-0.093-6.684,0.842-9.188,3.515c-3.04,3.241-3.256,8.264,0.082,11.602c2.336,2.338,5.099,4.09,7.924,5.744
		c4.808,2.816,9.661,5.551,14.458,8.387c2.86,1.692,5.25,3.927,6.854,6.877c3.242,5.968,2.209,12.787-2.331,17.769
		c-3.199,3.51-7.191,5.367-11.899,6.014c-4.177,0.574-8.155-0.019-12.112-1.236c-1.833-0.564-3.674-1.105-5.513-1.654
		c-0.308-0.093-0.614-0.199-0.929-0.248c-2.306-0.35-3.15,0.201-3.774,2.459c-0.08,0.29-0.096,0.598-0.145,0.913
		c-0.51,0-0.887,0-1.372,0c0-6.978,0-13.955,0-21.087c0.372-0.024,0.786-0.051,1.23-0.08c0.466,1.832,0.931,3.61,1.373,5.393
		c1.6,6.446,5.918,10.202,12.121,11.828c3.565,0.935,7.222,0.968,10.732-0.575c5.992-2.634,7.92-9.346,4.234-14.756
		c-1.178-1.728-2.673-3.116-4.47-4.159c-3.376-1.961-6.792-3.854-10.163-5.822c-2.545-1.485-5.091-2.973-7.552-4.587
		c-2.599-1.703-4.86-3.801-6.418-6.54c-3.337-5.87-2.244-12.904,2.427-17.687c2.923-2.993,6.457-4.645,10.624-5.245
		c4.418-0.637,8.514,0.323,12.567,1.847c0.836,0.314,1.655,0.681,2.494,0.986c2.707,0.984,4.073,0.304,4.958-2.451
		C244.214,25.531,244.253,25.352,244.314,25.116z"/>
	<path fill-rule="evenodd" clip-rule="evenodd" fill="#0101FE" d="M107.4,124.654c0.417-0.449,0.708-0.764,1.009-1.088
		c-0.198-0.26-0.392-0.514-0.637-0.835c0.286-1.074,1.138-1.615,2.126-1.938c0.233-0.077,0.6,0.253,0.894,0.392
		c-0.387,1.288-1.442,0.333-2.082,0.896c0.425,1.102,1.464,0.88,2.47,0.938c-0.521,1.13-1.719,0.793-2.487,1.507
		c59.96,0,119.811,0,179.767,0c0,1.048,0,1.978,0,3.011c-91.672,0-183.345,0-275.134,0c0-0.899,0-1.828,0-2.882
		C44.624,124.654,75.958,124.654,107.4,124.654z"/>
	<path fill-rule="evenodd" clip-rule="evenodd" fill="#0101FE" d="M174.836,87.422c0-0.477,0-0.851,0-1.254
		c0.198-0.063,0.371-0.162,0.548-0.167c0.835-0.021,1.671-0.001,2.505-0.023c3.377-0.091,5.363-1.899,5.7-5.241
		c0.097-0.957,0.075-1.926,0.075-2.889c0.005-14.072,0.004-28.143,0.002-42.213c0-0.707-0.021-1.414-0.023-2.12
		c-0.009-3.442-1.707-5.218-5.638-5.724c-0.999-0.129-2.028-0.02-3.122-0.02c0-0.568,0-0.981,0-1.479c8.818,0,17.59,0,26.441,0
		c0,0.471,0,0.884,0,1.46c-0.933,0-1.817-0.011-2.703,0.001c-3.796,0.056-5.781,1.94-6.031,5.743
		c-0.06,0.897-0.051,1.798-0.051,2.697c-0.003,13.879-0.003,27.757-0.002,41.636c0,0.835,0.016,1.67,0.025,2.506
		c0.043,3.238,1.541,5.011,5.557,5.611c0.999,0.149,2.039,0.022,3.201,0.022c0.027,0.51,0.05,0.925,0.079,1.452
		C192.566,87.422,183.794,87.422,174.836,87.422z"/>
	<path fill-rule="evenodd" clip-rule="evenodd" fill="#0101FE" d="M283.512,26.316c0,0.479,0,0.853,0,1.437
		c-0.973,0-1.917-0.014-2.861,0.002c-3.594,0.066-5.558,1.873-5.9,5.472c-0.09,0.958-0.066,1.926-0.066,2.889
		c-0.003,13.943-0.002,27.886-0.001,41.828c0,0.771,0.026,1.542,0.023,2.313c-0.014,3.456,1.841,5.207,5.673,5.697
		c0.946,0.121,1.922,0.02,3.033,0.02c0.04,0.49,0.077,0.945,0.121,1.483c-8.862,0-17.584,0-26.461,0
		c-0.032-0.412-0.067-0.867-0.114-1.477c1.094,0,2.046,0.016,2.998-0.003c2.898-0.053,5.589-1.402,5.796-5.549
		c0.049-0.962,0.058-1.926,0.059-2.891c0.003-13.878,0.002-27.756,0.001-41.634c0-0.835-0.012-1.67-0.026-2.505
		c-0.059-3.349-1.681-5.056-5.558-5.604c-1.001-0.142-2.038-0.021-3.2-0.021c-0.027-0.516-0.049-0.932-0.076-1.458
		C265.785,26.316,274.557,26.316,283.512,26.316z"/>
	<path fill-rule="evenodd" clip-rule="evenodd" fill="#0101FE" d="M252.289,112.295c0.674,0.135,1.085,0.282,1.498,0.289
		c1.604,0.029,3.213-0.013,4.818,0.02c1.522,0.03,2.512-0.671,3.217-1.995c1.307-2.452,1.691-2.794,3.836-3.826
		c1.655,1.481,2.187,3.571,2.76,5.723c3.838,0,7.662,0,11.679,0c-0.326-2.126-0.634-4.186-0.963-6.239
		c-0.151-0.947-0.281-1.905-0.537-2.826c-0.202-0.727-0.582-1.404-0.884-2.104c-0.139,0.002-0.279,0.004-0.419,0.006
		c0.438-1.297,0.878-2.594,1.309-3.865c1.077,0.858,2.018,1.607,3.179,2.531c-0.11,0.882-0.002,2.119-1.021,3.114
		c-0.242,0.236-0.251,0.838-0.188,1.243c0.416,2.648,0.963,5.281,1.299,7.94c0.182,1.435,0.032,2.912,0.032,4.533
		c-1.432,0-2.828,0-4.225,0c-1.991,0-3.987-0.08-5.973,0.018c-3.454,0.167-6.754-0.336-9.753-1.993
		c-3.643,2.878-9.212,2.841-11.817-0.056c-2.817,2.798-6.454,1.82-10.136,2.093c1.734,0.935,1.637,2.177,1.036,3.538
		c-0.309,0.703-0.521,1.45-0.866,2.131c-0.842,1.656-2.006,2.037-3.644,1.09c-1.69-0.978-2.677-2.534-3.126-4.422
		c-0.178-0.74-0.295-1.494-0.47-2.398c-1.211,0-2.419,0-3.626,0c-3.598,0-7.195,0.011-10.793-0.005
		c-2.238-0.009-3.059-0.931-2.769-3.098c0.101-0.754,0.275-1.497,0.458-2.469c0.512,0.486,0.888,0.842,1.333,1.264
		c1.716,0,3.5,0,5.432,0c-0.138-2.217-1.104-3.889-2.919-5.175c0.265-1.44,0.526-2.866,0.794-4.316
		c2.338,1.072,3.288,3.034,3.853,9.395c3.398,0.412,7.894,0.252,9.496-0.339c1.519-2.874,1.999-6.381,4.951-8.397
		c2.938,2.207,2.527,6.452-0.678,9.101c2.835-0.096,5.76-0.181,8.682-0.313c0.354-0.017,0.694-0.301,1.215-0.541
		c-0.331-0.566-0.636-1.091-0.969-1.661c-0.642,0.101-1.175,0.183-1.731,0.27c-0.094-0.179-0.271-0.357-0.249-0.506
		c0.119-0.754,0.206-1.531,0.465-2.243c0.339-0.933,0.993-1.549,2.019-1.884c1.455-0.474,2.803-0.199,4.117,0.319
		c1.589,0.627,2.136,1.961,1.521,3.573C253.24,110.573,252.804,111.279,252.289,112.295z M234.957,117.381
		c0.969,2.302,2.165,3.046,4.193,2.725C238.809,118.405,237.407,117.464,234.957,117.381z M238.211,108.053
		c-1.609,1.063-1.948,2.343-2.585,4.016c1.341-0.64,2.269-1.082,3.359-1.603C238.716,109.625,238.506,108.97,238.211,108.053z
		 M262.886,111.686c1.067,0.382,1.904,0.681,2.945,1.054c-0.153-1.438-0.844-2.053-1.966-2.592
		C263.564,110.62,263.291,111.05,262.886,111.686z"/>
	<path fill-rule="evenodd" clip-rule="evenodd" fill="#0101FE" d="M58.881,114.897c-1.399,1.788-3.378,1.971-5.508,1.961
		c-9.383-0.047-18.766-0.018-28.15-0.021c-2.454,0-3.273-0.586-4.033-2.974c-0.322-1.011-0.529-2.06-0.797-3.121
		c-0.96,0.796-1.878,1.559-2.735,2.271c-1.561-0.286-2.937-0.54-4.429-0.813c1.105-3.48,2.572-6.507,6.107-7.811
		c0.156-1.602,0.299-3.041,1.282-4.231c0.735,3.914,1.449,7.768,2.2,11.613c0.054,0.274,0.374,0.497,0.565,0.737
		c5.235,0,10.419,0,15.863,0c-0.541-1.065-0.993-1.961-1.532-3.024c0.318-0.907,0.691-1.973,1.102-3.144
		c1.796,1.776,1.331,4.134,1.974,6.234c5.12,0,10.25,0.007,15.381-0.004c1.392-0.003,2.223-0.828,2.804-2.003
		c0.814-1.646,1.827-3.103,3.682-3.717c2.275,1.815,3.319,5.412,2.838,10.045c-1.11-0.261-2.218-0.465-3.29-0.788
		C61.111,115.779,60.052,115.33,58.881,114.897z M20.167,108.214c-0.084-0.56-0.171-1.141-0.284-1.892
		c-1.375,0.687-2.75,0.984-3.255,2.59C17.933,109.242,19.018,109.307,20.167,108.214z M60.24,111.805
		c0.89,0.297,1.731,0.575,2.759,0.918c-0.212-1.423-0.858-2.082-1.951-2.522c-0.225,0.25-0.466,0.451-0.612,0.704
		C60.323,111.104,60.328,111.371,60.24,111.805z"/>
	<path fill-rule="evenodd" clip-rule="evenodd" fill="#0101FE" d="M135.836,86.746c0.507,0.911,1.016,1.821,1.504,2.699
		c10.647,0,21.044,0,31.575,0c0.037,0.371,0.063,0.659,0.1,1.041c-0.348,0.046-0.652,0.122-0.955,0.122
		c-8.482,0.007-16.965-0.083-25.445,0.045c-3.943,0.059-7.88-0.142-11.822-0.059c-4.046,0.087-8.096,0.02-12.144,0.02
		c-3.984,0-7.968,0-11.952,0s-7.967,0-11.952,0c-4.048,0-8.096,0-12.145,0c-3.983,0-7.968,0-11.952,0c-3.983,0-7.967,0-11.951,0
		c-3.983,0-7.968,0-11.951,0c-4.049,0-8.097,0-12.145,0c-3.984,0-7.968,0.001-11.952-0.003c-0.448,0-0.896-0.039-1.345-0.061
		c0-0.344,0-0.687,0-1.03c0.705-0.021,1.411-0.06,2.116-0.06c36.565-0.004,73.131-0.004,109.696-0.004c0.693,0,1.386,0,2.515,0
		c-1.656-1.113-2.903-2.109-4.288-2.852c-2.866-1.533-3.866-4.962-3.49-7.344c0.493-3.124,2.438-5.406,5.897-5.937
		c1.839-0.281,3.544,0.432,4.905,1.742c3.589,3.459,2.469,9.587-1.583,11.38c-0.119-0.122-0.236-0.242-0.355-0.363
		c2.524-2.783,2.173-6.03,1.288-9.236c-0.581-2.1-2.141-2.921-3.842-2.833c-1.792,0.092-3.005,0.904-3.663,2.832
		c-0.699,2.051-0.713,4.202-0.18,6.255c0.735,2.83,2.075,4.035,4.956,3.628c0.185-0.026,0.38,0.021,0.571,0.034L135.836,86.746z"/>
	<path fill-rule="evenodd" clip-rule="evenodd" fill="#0101FE" d="M186.962,114.691c-1.751,1.762-3.785,2.158-5.961,2.149
		c-2.313-0.01-4.628,0.009-6.941-0.005c-2.571-0.014-3.658-0.882-3.903-3.472c-0.246-2.612-0.284-5.246-0.363-7.871
		c-0.057-1.851-0.019-1.852-0.998-3.61c0.453-0.986,0.954-2.072,1.521-3.305c1.181,1.726,1.284,3.572,1.376,5.385
		c0.098,1.924,0.037,3.854,0.043,5.783c0.005,0.979,0.162,1.911,0.819,2.675c3.542,0.522,10.925,0.259,12.538-0.519
		c-0.314-0.535-0.623-1.058-0.957-1.622c-0.646,0.102-1.18,0.186-1.707,0.269c-0.534-2.34,0.508-4.141,2.611-4.723
		c1.471-0.406,2.812-0.001,4.08,0.594c1.294,0.607,1.712,1.842,1.207,3.227c-0.301,0.826-0.747,1.599-1.168,2.48
		c0.161,0.122,0.311,0.333,0.462,0.335c2.686,0.021,5.373,0.016,8.188,0.016c0.022-0.172,0.112-0.409,0.077-0.627
		c-0.439-2.713-0.909-5.422-1.338-8.136c-0.151-0.956-0.293-1.883-1.443-2.342c0.501-1.396,0.957-2.67,1.388-3.871
		c1.118,0.885,2.064,1.634,3.169,2.508c-0.186,1.019-0.038,2.395-1.306,3.366c0.405,4.389,1.856,8.717,1.44,13.463
		c-1.141,0-2.274,0-3.408,0c-1.735,0-3.471-0.014-5.206,0.004C189.487,116.858,187.986,116.487,186.962,114.691z"/>
	<path fill-rule="evenodd" clip-rule="evenodd" fill="#0101FE" d="M101.351,113.961c-3.727,0.904-7.46,2.055-11.281,2.657
		c-2.821,0.442-5.757,0.233-8.639,0.161c-0.558-0.014-1.331-0.617-1.598-1.153c-0.604-1.207-0.953-2.543-1.404-3.821
		c-0.34,0.667-0.75,1.44-1.13,2.227c-1.063,2.19-2.889,3.446-5.192,3.877c-1.929,0.357-3.915,0.41-5.782,0.589
		c-0.602-1.102,0.047-1.253,0.643-1.523c2.145-0.969,4.312-1.899,6.392-2.993c2.044-1.076,3.769-2.627,4.109-5.021
		c0.23-1.616,0.154-3.35-0.166-4.954c-0.438-2.194-0.309-4.13,1.472-6.128c0.279,2.614,0.612,4.972,0.76,7.341
		c0.15,2.414,0.15,4.834,0.915,7.26c3.264,0,6.426,0,9.865,0c-1.144-2.104-1.541-4.115-0.296-6.117
		c0.923-1.485,2.247-2.394,3.964-2.792c2.653-0.616,5.417,0.987,6.068,3.715c-3.025-0.468-6.038-1.076-9.07,0.555
		c0.668,2.282,2.771,2.786,4.301,3.946c2.422-0.669,4.842-1.337,7.607-2.1C102.332,111.229,101.909,112.404,101.351,113.961z"/>
	<path fill-rule="evenodd" clip-rule="evenodd" fill="#0101FE" d="M163.162,101.224c0.43-1.253,0.86-2.505,1.297-3.778
		c1.086,0.881,2.063,1.674,3.19,2.589c-0.229,0.938,0.005,2.256-1.136,3.187c-0.201,0.164-0.165,0.726-0.111,1.084
		c0.371,2.461,0.826,4.912,1.156,7.378c0.218,1.632,0.273,3.286,0.416,5.094c-5.642,0-11.071,0-16.878,0
		c0.794,0.495,1.247,0.779,1.752,1.094c-0.127,0.563-0.253,1.054-0.345,1.551c-0.388,2.094-1.505,3.418-3.696,3.819
		c-2.634,0.481-5.221,1.343-7.946,0.591c-1.828-0.504-3.416-1.335-3.744-3.379c-0.146-0.908,0.021-1.93,0.29-2.827
		c0.631-2.113,1.957-3.859,3.297-5.575c0.125-0.16,0.423-0.207,0.652-0.252c0.089-0.017,0.208,0.121,0.409,0.25
		c-0.499,0.729-1.094,1.408-1.467,2.192c-0.429,0.9-0.841,1.876-0.941,2.853c-0.165,1.617,0.392,2.243,1.984,2.83
		c1.812,0.667,3.685,0.455,5.514,0.249c1.363-0.155,2.686-0.654,4.312-1.072c-1.767-1.354-3.792-0.018-5.173-1.338
		c0.958-3.739,2.859-4.954,7.039-5.133c3.588-0.153,7.189-0.032,10.783-0.032c0.633,0,1.266,0,2.115,0
		c-0.158-1.173-0.272-2.218-0.445-3.254c-0.335-2.018-0.661-4.039-1.082-6.04c-0.142-0.67-0.561-1.281-0.852-1.921
		C163.422,101.33,163.293,101.276,163.162,101.224z"/>
	<path fill-rule="evenodd" clip-rule="evenodd" fill="#0101FE" d="M27.863,41.699c0.705-0.02,1.41-0.06,2.115-0.06
		c44.32-0.003,88.64-0.003,132.96-0.003c0.695,0,1.389,0,2.14,0c0,0.437,0,0.721,0,1.157c-0.626,0-1.189,0-1.755,0
		c-44.641,0-89.281,0.001-133.922-0.002c-0.512,0-1.024-0.04-1.537-0.061C27.863,42.387,27.863,42.043,27.863,41.699z"/>
	<path fill-rule="evenodd" clip-rule="evenodd" fill="#0101FE" d="M29.405,65.995c0.705-0.02,1.41-0.06,2.115-0.06
		c43.935-0.003,87.869-0.003,131.803-0.003c0.694,0,1.386,0,2.14,0c0,0.436,0,0.721,0,1.157c-0.625,0-1.189,0-1.754,0
		c-44.256,0-88.511,0.001-132.767-0.002c-0.513,0-1.025-0.04-1.537-0.061C29.405,66.683,29.405,66.339,29.405,65.995z"/>
	<path fill-rule="evenodd" clip-rule="evenodd" fill="#0101FE" d="M119.731,112.515c2.643,0,4.874,0,7.287,0
		c-0.568-3.49-1.119-6.874-1.664-10.232c-0.37-0.313-0.704-0.597-1.167-0.989c0.445-1.277,0.892-2.563,1.319-3.792
		c1.095,0.859,2.042,1.603,3.174,2.492c-0.176,0.911,0.022,2.184-1.051,3.16c-0.239,0.219-0.222,0.84-0.157,1.25
		c0.419,2.648,0.961,5.279,1.303,7.938c0.178,1.386,0.031,2.813,0.031,4.498c-0.544,0-1.153,0-1.763,0
		c-1.863,0-3.727-0.051-5.587,0.018c-1.275,0.046-2.121-0.481-2.552-1.617c-0.425-1.121-0.734-2.289-1.103-3.465
		c-0.155,0.321-0.37,0.738-0.558,1.166c-1.357,3.063-3.602,4.899-7.03,5.136c-1.579,0.109-3.154,0.263-4.778,0.4
		c-0.024-0.506-0.036-0.751-0.044-0.933c2.163-1.033,4.297-1.993,6.377-3.059c4.676-2.396,5.912-4.858,4.88-10.591
		c-0.494-2.744-0.294-3.855,1.31-5.758C119.28,102.805,118.46,107.783,119.731,112.515z"/>
	<path fill-rule="evenodd" clip-rule="evenodd" fill="#0101FE" d="M93.23,73.749c-0.79,0.24-1.31,0.396-2.006,0.608
		c-0.236,3.969-0.09,7.917-0.079,11.975c0.641,0.231,1.206,0.437,2.018,0.73c-2.076,0-3.9,0-5.961,0
		c0.713-0.3,1.44-0.381,1.687-0.768c0.305-0.479,0.276-1.212,0.282-1.836c0.026-2.669,0.011-5.339-0.284-8.088
		c-1.604,3.588-3.208,7.174-4.906,10.971c-1.86-3.882-3.618-7.552-5.508-11.494c0,3.682,0,7.047,0,10.517
		c0.618,0.22,1.188,0.423,2.013,0.715c-2.895,0-5.518,0-8.329,0c-1.45-1.946-2.974-3.993-4.504-6.048c-0.497,0-0.938,0-1.495,0
		c0,1.744,0,3.502,0,5.389c0.572,0.171,1.098,0.329,1.617,0.484c0.019,0.041,0.04,0.084,0.061,0.127c-1.848,0-3.696,0-5.835,0
		c0.787-0.234,1.304-0.389,1.995-0.594c0.246-3.971,0.088-7.916,0.087-11.975c-0.641-0.233-1.206-0.439-1.77-0.645
		c0.004-0.085,0.007-0.17,0.011-0.255c2.331,0.105,4.661,0.218,6.992,0.314c1.709,0.072,2.988,1.432,3.232,2.822
		c0.244,1.393-0.671,2.666-2.459,3.479c-0.171,0.079-0.364,0.11-0.802,0.237c1.375,2.007,2.655,3.966,4.313,5.633
		c0.839,0.844,1.996,0.8,3.094,0.667c0.699-0.085,0.915-0.61,0.914-1.256c-0.001-1.477,0.004-2.954,0.005-4.431
		c0.001-1.605,0.009-3.211-0.002-4.816c-0.012-1.833-0.02-1.833-2.067-2.467c1.406,0,2.496,0,3.834,0
		c1.586,3.284,3.243,6.712,5.028,10.409c1.396-1.698,1.821-3.582,2.633-5.251c0.81-1.665,1.527-3.374,2.324-5.154
		C90.547,73.749,91.743,73.749,93.23,73.749z M66.133,80.129c1.731,0.246,3.176-0.045,3.909-1.58
		c0.503-1.054,0.485-2.256-0.348-3.243c-0.98-1.164-2.208-1.009-3.561-0.642C66.133,76.49,66.133,78.252,66.133,80.129z"/>
	<path fill-rule="evenodd" clip-rule="evenodd" fill="#038103" d="M22.714,39.263c-2.875,0-5.751,0-8.627,0
		c-0.007-0.061-0.014-0.122-0.021-0.182c0.407-0.064,0.824-0.094,1.218-0.203c0.949-0.263,1.01-1.033,1.008-1.84
		c-0.006-3.018-0.002-6.037-0.002-9.055c0-1.027,0.003-2.054-0.001-3.082c-0.008-2.26-0.01-2.26-2.552-2.85c3.213,0,6.06,0,9.305,0
		c-0.582,0.174-0.799,0.289-1.021,0.296c-1.05,0.037-1.483,0.613-1.482,1.609c0.001,1.541-0.004,3.082-0.005,4.624
		c-0.001,2.633-0.006,5.266,0.001,7.898C20.543,38.648,20.59,38.697,22.714,39.263z"/>
	<path fill-rule="evenodd" clip-rule="evenodd" fill="#0101FE" d="M97.832,63.561c-1.365,0-2.44,0-3.685,0
		c-1.425-1.912-2.913-3.907-4.468-5.994c-0.435-0.044-0.928-0.096-1.542-0.159c0,1.844,0,3.603,0,5.487
		c0.578,0.173,1.104,0.33,2.014,0.603c-2.217,0-4.046,0-6.145,0c0.764-0.226,1.281-0.379,1.97-0.583
		c0.255-3.967,0.068-7.911,0.116-11.963c-0.661-0.242-1.224-0.447-1.788-0.653c0.003-0.086,0.006-0.172,0.009-0.258
		c2.323,0.104,4.647,0.205,6.97,0.313c1.806,0.083,3,1.481,3.244,2.803c0.256,1.387-0.658,2.675-2.436,3.49
		c-0.171,0.078-0.365,0.108-0.815,0.236C93.254,59.311,94.246,62.441,97.832,63.561z M88.072,56.589
		c1.832,0.284,3.325-0.054,4.013-1.704c0.438-1.052,0.407-2.266-0.506-3.224c-0.868-0.911-1.85-1.008-3.507-0.322
		C88.072,53.035,88.072,54.748,88.072,56.589z"/>
	<path fill-rule="evenodd" clip-rule="evenodd" fill="#0101FE" d="M166.19,63.572c-1.481,0-2.565,0-3.777,0
		c-1.449-1.946-2.938-3.944-4.488-6.026c-0.45-0.034-0.944-0.071-1.458-0.109c-0.07,0.241-0.166,0.418-0.168,0.597
		c-0.016,1.091-0.023,2.182-0.011,3.272c0.02,1.67,0.032,1.675,1.764,2.312c-0.896,0-1.792,0-2.687,0c-0.941,0-1.885,0-2.826,0
		c-0.004-0.063-0.006-0.126-0.01-0.189c0.521-0.162,1.041-0.323,1.813-0.563c0.021-3.95,0.046-7.893-0.03-11.945
		c-0.644-0.23-1.21-0.434-1.775-0.637c0.005-0.084,0.01-0.168,0.015-0.253c2.344,0.11,4.685,0.239,7.028,0.321
		c1.568,0.056,2.966,1.355,3.214,2.839c0.234,1.392-0.686,2.659-2.475,3.469c-0.172,0.078-0.365,0.11-0.8,0.237
		C161.514,59.239,162.445,62.374,166.19,63.572z M156.346,56.579c1.667,0.27,3.027,0.024,3.904-1.453
		c0.557-0.939,0.365-2.62-0.361-3.41c-1.028-1.116-2.232-0.972-3.543-0.514C156.346,52.973,156.346,54.688,156.346,56.579z"/>
	<path fill-rule="evenodd" clip-rule="evenodd" fill="#038103" d="M22.85,54.325c-0.648-1.067-1.1-1.972-1.702-2.761
		c-0.615-0.803-1.51-1.113-2.553-1.07c-0.872,0.036-1.539,0.385-1.819,1.168c-0.301,0.843-0.098,1.667,0.665,2.237
		c0.408,0.306,0.865,0.547,1.301,0.815c0.982,0.604,2.008,1.149,2.939,1.823c1.793,1.298,2.325,3.064,1.564,4.863
		c-0.729,1.723-3.029,2.887-4.961,2.487c-0.5-0.104-0.982-0.289-1.473-0.437c-1.107-0.332-1.107-0.331-2.447,0.526
		c0-0.903,0-1.693,0-2.482c0-0.769,0-1.538,0-2.306c0.07-0.025,0.14-0.05,0.21-0.075c0.219,0.518,0.422,1.043,0.661,1.551
		c0.825,1.755,2.381,2.69,4.121,2.571c0.866-0.06,1.533-0.44,1.819-1.199c0.3-0.798,0.275-1.682-0.438-2.318
		c-0.472-0.421-1.019-0.763-1.554-1.104c-0.972-0.62-2.006-1.153-2.934-1.832c-1.772-1.298-2.262-2.971-1.48-4.686
		c0.811-1.78,2.786-2.679,4.832-2.175c0.495,0.122,0.965,0.426,1.458,0.452c0.552,0.031,1.115-0.16,1.794-0.274
		c0,0.516,0,1.255,0,1.995C22.85,52.8,22.85,53.503,22.85,54.325z"/>
	<path fill-rule="evenodd" clip-rule="evenodd" fill="#0101FE" d="M61.039,80.034c-0.164,3.977-2.396,6.764-5.614,7.372
		c-1.55,0.295-2.942-0.084-4.218-0.857c-3.875-2.345-4.383-8.467-1.012-11.496c3.675-3.302,8.875-1.731,10.432,2.996
		C60.864,78.771,60.941,79.547,61.039,80.034z M58.894,80.88c-0.219-1.397-0.288-2.686-0.639-3.892
		c-0.602-2.066-1.799-2.929-3.712-2.957c-1.913-0.027-3.218,0.791-3.845,2.798c-0.797,2.553-0.825,5.16,0.296,7.662
		c0.647,1.444,1.693,2.309,3.419,2.289c1.745-0.019,3.001-0.795,3.639-2.303C58.535,83.336,58.639,82.033,58.894,80.88z"/>
	<path fill-rule="evenodd" clip-rule="evenodd" fill="#038103" d="M20.921,73.968c-0.599,0.116-1.198,0.232-1.843,0.356
		c0,4.096,0,7.992,0,12.023c0.583,0.209,1.152,0.414,1.977,0.708c-2.593,0-4.919,0-7.678,0c0.886-0.263,1.402-0.417,2.021-0.601
		c0-3.991,0-7.941,0-12.035c-0.55-0.195-1.117-0.396-2.006-0.711c2.727,0,5.129,0,7.53,0C20.921,73.795,20.921,73.882,20.921,73.968
		z"/>
	<path fill-rule="evenodd" clip-rule="evenodd" fill="#0101FE" d="M40.232,26.595c0,4.306,0,8.461,0,12.616
		c-0.11,0.057-0.221,0.114-0.332,0.171c-2.904-3.604-5.808-7.208-8.869-11.007c0,3.552,0,6.797,0,10.16
		c0.605,0.217,1.172,0.42,1.989,0.714c-1.708,0-3.158,0-5.014,0c0.901-0.3,1.438-0.479,2.058-0.686c0-3.773,0-7.479,0-11.505
		c-0.724-0.333-1.602-0.737-2.555-1.175c1.287,0,2.496,0,3.728,0c2.609,3.325,5.212,6.646,8.059,10.278
		c0.065-0.716,0.13-1.102,0.131-1.489c0.01-2.119,0.012-4.239,0.003-6.357c-0.008-1.842-0.016-1.842-2.156-2.39
		c1.8,0,3.212,0,4.904,0C41.452,26.175,40.952,26.347,40.232,26.595z"/>
	<path fill-rule="evenodd" clip-rule="evenodd" fill="#0101FE" d="M20.921,73.968c0-0.086,0-0.173,0-0.259c1.217,0,2.434,0,3.758,0
		c2.593,3.301,5.229,6.658,8.103,10.315c0-3.451,0-6.482,0-9.538c-0.346-0.168-0.615-0.33-0.905-0.432
		c-0.265-0.092-0.554-0.118-0.81-0.349c1.464,0,2.928,0,4.391,0c0.009,0.048,0.018,0.096,0.027,0.144
		c-0.511,0.148-1.021,0.295-1.782,0.515c-0.132,4.212-0.002,8.43-0.082,13.092c-3.265-3.767-6.004-7.499-9.152-11.257
		c0,3.543,0,6.773,0,10.14c0.589,0.216,1.153,0.423,1.962,0.718c-1.679,0-3.111,0-4.78,0c0.705-0.295,1.429-0.372,1.67-0.754
		c0.305-0.482,0.283-1.213,0.288-1.837c0.024-3.083,0.011-6.166,0.011-9.138C22.983,74.161,21.965,74.036,20.921,73.968z"/>
	<path fill-rule="evenodd" clip-rule="evenodd" fill="#0101FE" d="M49.587,63.54c0.955-0.313,1.474-0.482,2.087-0.683
		c0.035-0.625,0.092-1.189,0.094-1.754c0.01-2.826,0.011-5.653,0.002-8.479c-0.006-1.86-0.016-1.86-1.755-2.408
		c2.297,0.016,4.597-0.356,6.89,0.192c2.251,0.539,3.579,2.142,3.3,4.024c-0.322,2.176-2.277,3.624-4.611,3.386
		c-0.565-0.057-1.121-0.213-1.766-0.34c-0.049,0.455-0.119,0.827-0.123,1.201c-0.015,1.341-0.006,2.681-0.006,4.115
		c0.68,0.246,1.245,0.451,2.059,0.745C53.677,63.54,51.849,63.54,49.587,63.54z M53.738,56.943c1.589,0.19,3.053,0.422,3.852-1.175
		c0.64-1.281,0.6-2.64-0.239-3.833c-0.927-1.316-2.24-1.2-3.613-0.841C53.738,53.047,53.738,54.904,53.738,56.943z"/>
	<path fill-rule="evenodd" clip-rule="evenodd" fill="#0101FE" d="M68.249,50.736c-0.689-0.152-1.21-0.268-1.73-0.383
		c0.009-0.052,0.017-0.104,0.026-0.157c3.379,0,6.758,0,10.216,0c0,1.014,0,1.955,0,3.355c-0.25-0.761-0.345-1.107-0.477-1.438
		c-0.314-0.79-0.862-1.238-1.758-1.225c-1.34,0.02-2.682,0.005-4.131,0.005c0,1.782,0,3.48,0,5.398c0.786,0,1.598,0.002,2.41,0
		c1.997-0.007,1.997-0.008,2.827-1.924c0,1.58,0,3.042,0,4.606c-0.852-1.908-0.852-1.909-3.015-1.911c-0.7-0.001-1.399,0-2.216,0
		c0,1.895,0,3.715,0,5.757c2.312-0.208,4.722,0.841,6.884-1.089c-0.164,0.584-0.329,1.169-0.511,1.82c-3.406,0-6.794,0-10.605,0
		c0.921-0.306,1.461-0.484,2.081-0.689C68.249,58.837,68.249,54.88,68.249,50.736z"/>
	<path fill-rule="evenodd" clip-rule="evenodd" fill="#0101FE" d="M118.94,50.892c-0.03,0.443-0.06,0.689-0.061,0.936
		c-0.004,1.407-0.001,2.814-0.001,4.456c1.251,0,2.445,0.005,3.64-0.001c1.176-0.007,1.28-1.005,1.691-1.779
		c0,1.447,0,2.892,0,4.338c-0.32-1.545-1.319-1.966-2.773-1.794c-0.757,0.09-1.534,0.016-2.43,0.016c0,1.869,0,3.69,0,5.512
		c2.755,0.671,4.815,0.391,6.683-0.908c0.047,0.112,0.155,0.242,0.131,0.335c-0.128,0.492-0.291,0.976-0.465,1.54
		c-3.364,0-6.751,0-10.519,0c0.853-0.287,1.375-0.463,1.992-0.671c0-4.006,0-7.962,0-12.042c-0.563-0.173-1.139-0.349-2.078-0.637
		c3.75,0,7.125,0,10.591,0c0,0.99,0,1.927,0,2.864c-0.42-1.956-1.757-2.373-3.536-2.181
		C120.921,50.971,120.019,50.892,118.94,50.892z"/>
	<path fill-rule="evenodd" clip-rule="evenodd" fill="#0101FE" d="M166.273,78.066c0,1.406,0,2.813,0,4.42
		c-0.4-0.67-0.592-1.411-1.049-1.65c-0.57-0.3-1.356-0.211-2.053-0.242c-0.691-0.031-1.387-0.008-2.168-0.008c0,1.9,0,3.677,0,5.457
		c2.393,0.762,4.949,0.444,6.715-0.891c0.395,0.77-0.291,1.275-0.313,1.926c-3.474,0-6.86,0-10.675,0
		c0.932-0.281,1.453-0.439,2.223-0.673c0.066-4.005,0.021-8.007,0.025-12.067c-0.711-0.181-1.24-0.316-1.771-0.453
		c0.004-0.046,0.006-0.092,0.01-0.138c3.336,0,6.672,0,10.131,0c0,0.89,0,1.821,0,2.938c-0.146-0.338-0.259-0.541-0.324-0.757
		c-0.32-1.06-0.988-1.572-2.135-1.524c-1.268,0.054-2.539,0.012-3.891,0.012c0,1.837,0,3.537,0,5.4c0.936,0,1.818,0.007,2.701-0.002
		C165.498,79.798,165.514,79.781,166.273,78.066z"/>
	<path fill-rule="evenodd" clip-rule="evenodd" fill="#0101FE" d="M54.166,39.293c0-1.189,0-2.622,0-4.524
		c0.296,0.844,0.464,1.238,0.573,1.646c0.517,1.93,2.854,3.076,5.202,2.346c1.645-0.512,2.049-2.527,0.748-3.707
		c-0.698-0.632-1.597-1.045-2.412-1.546c-0.873-0.535-1.808-0.987-2.622-1.6c-1.452-1.092-1.891-2.785-1.218-4.249
		c0.689-1.499,2.698-2.491,4.347-2.111c0.496,0.113,0.974,0.312,1.45,0.498c0.728,0.283,1.351,0.202,1.891-0.659
		c0,1.645,0,3.098,0,4.931c-0.332-0.914-0.497-1.504-0.754-2.051c-0.73-1.551-2.319-2.345-3.969-2.028
		c-0.817,0.156-1.452,0.596-1.696,1.39c-0.262,0.855-0.082,1.699,0.679,2.234c0.887,0.623,1.848,1.14,2.78,1.699
		c0.548,0.328,1.111,0.633,1.651,0.973c1.822,1.144,2.497,2.83,1.832,4.541c-0.707,1.815-2.7,2.931-4.655,2.562
		c-0.625-0.117-1.217-0.451-1.841-0.506C55.497,39.075,54.822,39.231,54.166,39.293z"/>
	<path fill-rule="evenodd" clip-rule="evenodd" fill="#0101FE" d="M67.01,99.414c3.758,1.466,6.63,3.835,8.635,7.171
		c0.713,1.187,1.234,2.573,0.254,4.097c-0.608-0.979-1.113-1.969-1.788-2.825c-0.66-0.839-1.492-1.54-2.336-2.389
		c-0.347,0.548-0.57,0.899-0.788,1.243C67.885,105.914,65.505,102.371,67.01,99.414z"/>
	<path fill-rule="evenodd" clip-rule="evenodd" fill="#0101FE" d="M110.965,105.637c-0.229,0.398-0.418,0.729-0.735,1.28
		c-0.904-0.617-1.837-1.135-2.625-1.818c-1.699-1.475-2.19-3.59-1.334-5.612c0.511,0.174,1.066,0.291,1.555,0.541
		c2.849,1.457,5.239,3.464,6.938,6.188c0.839,1.347,1.497,2.818,0.433,4.529C114.116,108.757,113.16,106.772,110.965,105.637z"/>
	<path fill-rule="evenodd" clip-rule="evenodd" fill="#0101FE" d="M40.33,79.875c1.671-0.338,3.82,0.898,4.447-1.863
		c0,1.459,0,2.918,0,4.378c-0.575-2.832-2.764-1.521-4.459-1.829c0,1.986,0,3.869,0,5.837c0.587,0.188,1.112,0.354,1.988,0.634
		c-2.187,0-4.018,0-6.104,0c0.756-0.234,1.275-0.396,2.029-0.629c0.084-3.955,0.05-7.902,0.01-11.953
		c-0.65-0.231-1.221-0.435-2.044-0.729c3.633,0,7,0,10.463,0c0,0.973,0,1.91,0,3.243c-1.191-3.644-3.966-2.271-6.332-2.57
		C40.33,76.166,40.33,77.866,40.33,79.875z"/>
	<path fill-rule="evenodd" clip-rule="evenodd" fill="#0101FE" d="M99.453,76.6c0.402-1.063,0.804-2.125,1.366-3.611
		c0.607,1.489,1.064,2.55,1.476,3.629c0.954,2.502,1.88,5.014,2.828,7.519c0.472,1.247,0.958,2.496,2.428,2.963
		c-1.59,0-3.18,0-4.998,0c0.53-0.316,0.878-0.524,1.43-0.854c-0.422-1.202-0.837-2.382-1.275-3.631c-1.779,0-3.487,0-5.366,0
		c-0.444,1.091-0.914,2.245-1.419,3.485c0.661,0.36,1.129,0.615,1.769,0.963c-1.415,0-2.651,0-4.372,0
		c1.592-0.473,2.057-1.473,2.522-2.489c0.685-1.493,1.403-2.972,2.107-4.456c0.087,0.071,0.175,0.143,0.262,0.213
		c-0.086,0.43-0.172,0.859-0.265,1.326c1.469,0,2.856,0,4.37,0c-0.699-1.808-1.352-3.494-2.014-5.205
		c-0.289,0.174-0.447,0.27-0.605,0.365C99.613,76.745,99.532,76.674,99.453,76.6z"/>
	<path fill-rule="evenodd" clip-rule="evenodd" fill="#0101FE" d="M80.215,38.622c0-4.051,0-7.945,0-11.836
		c-3.194-0.43-3.496-0.31-4.431,2.249c-0.045-0.737-0.083-1.187-0.097-1.638c-0.014-0.444-0.003-0.889-0.003-1.454
		c3.689,0,7.317,0,11.064,0c0,0.882,0,1.813,0,2.638c-0.469-0.569-0.891-1.491-1.593-1.825c-0.745-0.353-1.755-0.148-2.785-0.195
		c0,4.011,0,7.951,0,12c0.579,0.202,1.14,0.398,2.001,0.699c-2.168,0-4.017,0-5.866,0c-0.01-0.05-0.02-0.1-0.029-0.15
		C78.983,38.969,79.49,38.826,80.215,38.622z"/>
	<path fill-rule="evenodd" clip-rule="evenodd" fill="#0101FE" d="M124.069,39.264c-2.136,0-3.986,0-5.835,0
		c-0.01-0.052-0.02-0.103-0.03-0.155c0.504-0.141,1.009-0.283,1.698-0.477c0.281-3.963,0.065-7.906,0.128-11.831
		c-3.29-0.455-3.604-0.309-4.521,2.241c-0.046-0.744-0.085-1.192-0.1-1.641c-0.014-0.444-0.003-0.89-0.003-1.457
		c3.685,0,7.312,0,11.062,0c0,0.873,0,1.804,0,2.633c-0.465-0.567-0.883-1.487-1.581-1.818c-0.747-0.355-1.757-0.153-2.79-0.2
		c0,4.005,0,7.944,0,11.997C122.672,38.763,123.24,38.967,124.069,39.264z"/>
	<path fill-rule="evenodd" clip-rule="evenodd" fill="#0101FE" d="M156.106,39.075c0.471-0.13,0.94-0.26,1.591-0.44
		c0.279-3.965,0.064-7.909,0.127-11.834c-3.289-0.45-3.6-0.313-4.521,2.241c-0.047-0.742-0.086-1.19-0.1-1.64
		c-0.014-0.445-0.002-0.891-0.002-1.456c3.686,0,7.313,0,11.063,0c0,0.875,0,1.807,0,2.634c-0.466-0.568-0.885-1.488-1.584-1.82
		c-0.747-0.354-1.758-0.152-2.789-0.199c0,4.007,0,7.946,0,12.002c0.574,0.203,1.139,0.401,1.982,0.699c-2.143,0-3.992,0-5.842,0
		C156.057,39.198,156.082,39.137,156.106,39.075z"/>
	<path fill-rule="evenodd" clip-rule="evenodd" fill="#0101FE" d="M115.11,74.375c0,4.103,0,7.994,0,11.99
		c0.617,0.219,1.184,0.42,2.017,0.715c-2.127,0-3.976,0-6.21,0c0.905-0.307,1.455-0.492,2.073-0.703c0-3.975,0-7.869,0-11.762
		c-3.195-0.46-3.532-0.275-4.42,2.264c-0.049-0.756-0.088-1.201-0.103-1.647c-0.015-0.446-0.003-0.893-0.003-1.462
		c3.68,0,7.307,0,11.06,0c0,0.866,0,1.797,0,2.627c-0.462-0.565-0.879-1.485-1.575-1.815
		C117.202,74.228,116.192,74.427,115.11,74.375z"/>
	<path fill-rule="evenodd" clip-rule="evenodd" fill="#0101FE" d="M285.84,99.064c0.465,3.538,0.88,7.082,1.408,10.609
		c0.401,2.685-0.034,5.196-1.244,7.788c-0.286-0.229-0.76-0.459-0.736-0.614c0.658-4.316-0.078-8.53-1.018-12.697
		C283.791,102.115,284.571,100.598,285.84,99.064z"/>
	<path fill-rule="evenodd" clip-rule="evenodd" fill="#0101FE" d="M203.871,117.428c-0.294-0.102-0.469-0.161-0.716-0.248
		c0.503-4.342-0.004-8.617-1.018-12.829c-0.495-2.058,0.188-3.696,1.519-5.754c0.572,4.548,1.137,8.659,1.585,12.783
		C205.437,113.173,205,114.637,203.871,117.428z"/>
	<path fill-rule="evenodd" clip-rule="evenodd" fill="#0101FE" d="M143.242,38.232c-1.97,1.796-5.255,2.059-7.166,0.408
		c-0.673-0.582-1.231-1.509-1.435-2.374c-0.302-1.29-0.292-2.663-0.327-4.003c-0.047-1.849-0.012-3.701-0.012-5.623
		c-0.711-0.256-1.276-0.459-2.058-0.74c0.605-0.034,0.983-0.071,1.362-0.074c1.47-0.007,2.94-0.003,4.443,0.21
		c-0.499,0.139-0.997,0.277-1.558,0.433c-0.089,0.333-0.236,0.63-0.238,0.928c-0.017,2.631-0.017,5.262-0.005,7.893
		c0.015,3.183,2.188,4.204,5.17,3.444c0.546-0.139,1.04-0.485,1.557-0.735C143.068,38.074,143.156,38.151,143.242,38.232z"/>
	<path fill-rule="evenodd" clip-rule="evenodd" fill="#0101FE" d="M40.272,62.528c-1.97,1.796-5.255,2.06-7.166,0.409
		c-0.674-0.582-1.231-1.509-1.434-2.374c-0.303-1.29-0.286-2.663-0.328-4.003c-0.052-1.667-0.022-3.337-0.041-5.004
		c-0.002-0.184-0.091-0.367-0.178-0.694c-0.505-0.181-1.072-0.385-1.889-0.679c2.115,0,3.962,0,5.809,0
		c0.012,0.051,0.023,0.101,0.035,0.15c-0.499,0.139-0.997,0.277-1.558,0.433c-0.089,0.333-0.236,0.63-0.238,0.928
		c-0.017,2.63-0.017,5.262-0.005,7.893c0.015,3.183,2.187,4.204,5.17,3.444c0.546-0.139,1.039-0.485,1.557-0.735
		C40.098,62.37,40.186,62.448,40.272,62.528z"/>
	<path fill-rule="evenodd" clip-rule="evenodd" fill="#0101FE" d="M143.242,62.528c-1.97,1.796-5.255,2.06-7.166,0.409
		c-0.673-0.582-1.231-1.509-1.435-2.374c-0.302-1.29-0.292-2.663-0.327-4.003c-0.047-1.849-0.012-3.702-0.012-5.623
		c-0.711-0.256-1.276-0.459-2.097-0.754c2.115,0,3.962,0,5.809,0c0.012,0.051,0.022,0.101,0.035,0.15
		c-0.499,0.139-0.997,0.277-1.558,0.433c-0.089,0.333-0.236,0.63-0.238,0.928c-0.017,2.63-0.017,5.262-0.005,7.894
		c0.015,3.182,2.188,4.203,5.17,3.443c0.546-0.139,1.04-0.485,1.557-0.735C143.068,62.37,143.156,62.448,143.242,62.528z"/>
	<path fill-rule="evenodd" clip-rule="evenodd" fill="#0101FE" d="M152.498,86.053c-1.971,1.797-5.255,2.06-7.166,0.41
		c-0.673-0.582-1.231-1.51-1.435-2.375c-0.303-1.289-0.292-2.663-0.327-4.002c-0.047-1.851-0.012-3.702-0.012-5.624
		c-0.712-0.256-1.276-0.459-2.097-0.754c2.115,0,3.962,0,5.81,0c0.011,0.05,0.022,0.1,0.034,0.15
		c-0.496,0.138-0.991,0.276-1.557,0.433c-0.089,0.333-0.236,0.63-0.238,0.927c-0.017,2.631-0.017,5.262-0.005,7.894
		c0.015,3.183,2.188,4.204,5.17,3.442c0.545-0.139,1.039-0.484,1.556-0.734C152.323,85.895,152.412,85.973,152.498,86.053z"/>
	<path fill-rule="evenodd" clip-rule="evenodd" fill="#0101FE" d="M97.799,39.231c0.908-0.284,1.429-0.447,2.052-0.642
		c0-4.009,0-7.958,0-12.009c-0.581-0.198-1.142-0.39-2.04-0.697c2.209,0,4.057,0,5.905,0c0.01,0.049,0.019,0.099,0.028,0.148
		c-0.511,0.146-1.021,0.291-1.72,0.49c-0.253,3.965-0.042,7.913-0.128,11.963c0.669,0.244,1.238,0.449,2.053,0.746
		C101.882,39.231,100.073,39.231,97.799,39.231z"/>
	<path fill-rule="evenodd" clip-rule="evenodd" fill="#0101FE" d="M126.384,73.893c-0.471,0.13-0.942,0.26-1.591,0.439
		c-0.293,3.969-0.042,7.916-0.146,11.969c0.666,0.243,1.234,0.45,2.052,0.748c-2.063,0-3.868,0-5.984,0
		c0.769-0.264,1.274-0.437,1.886-0.646c0-3.992,0-7.939,0-11.999c-0.573-0.2-1.138-0.396-2.003-0.696c2.165,0,4.013,0,5.861,0
		C126.434,73.769,126.409,73.831,126.384,73.893z"/>
	<path fill-rule="evenodd" clip-rule="evenodd" fill="#0101FE" d="M102.929,63.5c0.739-0.226,1.259-0.384,1.952-0.595
		c0.231-3.97,0.083-7.917,0.083-11.973c-0.642-0.23-1.209-0.434-2.033-0.729c2.085,0,3.907,0,5.969,0
		c-0.713,0.298-1.438,0.378-1.683,0.763c-0.306,0.481-0.279,1.212-0.285,1.836c-0.025,2.761-0.015,5.522-0.007,8.284
		c0.002,0.567,0.052,1.133,0.084,1.798c0.602,0.182,1.129,0.34,2.04,0.615C106.831,63.5,105,63.5,102.929,63.5z"/>
	<path fill-rule="evenodd" clip-rule="evenodd" fill="#0101FE" d="M34.293,119.394c0.833,0.348,1.406,0.586,2.074,0.865
		c0.442-0.707,0.835-1.335,1.32-2.107c0.8,0.486,1.532,0.933,2.375,1.446c-0.482,0.976-0.896,1.81-1.378,2.786
		c-0.674-0.349-1.261-0.651-1.935-0.999c-0.435,0.739-0.842,1.43-1.303,2.211c-0.834-0.502-1.58-0.949-2.43-1.46
		C33.457,121.191,33.85,120.347,34.293,119.394z"/>
	<path fill-rule="evenodd" clip-rule="evenodd" fill="#038103" d="M29.405,65.995c0,0.344,0,0.688,0,1.031
		c-5.354,0-10.709,0-16.125,0c0-0.373,0-0.658,0-1.031C18.696,65.995,24.051,65.995,29.405,65.995z"/>
	<path fill-rule="evenodd" clip-rule="evenodd" fill="#0101FE" d="M18.635,96.103c0.467-0.776,0.858-1.427,1.345-2.235
		c0.774,0.475,1.502,0.921,2.343,1.437c-0.484,0.974-0.898,1.81-1.386,2.791c-0.673-0.39-1.25-0.725-1.921-1.114
		c-0.406,0.74-0.792,1.441-1.273,2.32c-0.852-0.543-1.623-1.034-2.47-1.572c0.454-0.92,0.844-1.713,1.291-2.617
		C17.256,95.442,17.864,95.734,18.635,96.103z"/>
	<path fill-rule="evenodd" clip-rule="evenodd" fill="#038103" d="M27.863,41.699c0,0.344,0,0.688,0,1.031
		c-4.841,0-9.682,0-14.583,0c0-0.373,0-0.657,0-1.031C18.181,41.699,23.022,41.699,27.863,41.699z"/>
	<path fill-rule="evenodd" clip-rule="evenodd" fill="#0101FE" d="M142.976,37.999c0.818-1.068,1.005-2.288,0.982-3.604
		c-0.045-2.547-0.013-5.097-0.013-7.744c-0.672-0.243-1.234-0.446-2.048-0.741c1.681,0,3.108,0,4.612,0
		c-0.569,0.328-1.287,0.51-1.562,0.961c-0.294,0.485-0.196,1.223-0.228,1.852c-0.125,2.543-0.166,5.095-0.397,7.628
		c-0.06,0.654-0.705,1.255-1.08,1.882C143.156,38.151,143.068,38.074,142.976,37.999z"/>
	<path fill-rule="evenodd" clip-rule="evenodd" fill="#0101FE" d="M152.231,85.82c0.819-1.067,1.005-2.287,0.982-3.604
		c-0.046-2.547-0.013-5.098-0.013-7.744c-0.672-0.244-1.234-0.447-2.049-0.741c1.681,0,3.107,0,4.611,0
		c-0.568,0.328-1.286,0.51-1.561,0.961c-0.295,0.485-0.196,1.222-0.229,1.852c-0.125,2.543-0.165,5.094-0.396,7.627
		c-0.061,0.654-0.705,1.256-1.08,1.881C152.412,85.973,152.323,85.895,152.231,85.82z"/>
	<path fill-rule="evenodd" clip-rule="evenodd" fill="#0101FE" d="M142.976,62.295c0.818-1.068,1.005-2.288,0.982-3.604
		c-0.045-2.547-0.013-5.097-0.013-7.744c-0.672-0.243-1.234-0.446-2.048-0.741c1.681,0,3.108,0,4.612,0
		c-0.569,0.328-1.287,0.51-1.562,0.961c-0.294,0.485-0.196,1.223-0.228,1.852c-0.125,2.543-0.166,5.095-0.397,7.628
		c-0.06,0.654-0.705,1.255-1.08,1.881C143.156,62.448,143.068,62.37,142.976,62.295z"/>
	<path fill-rule="evenodd" clip-rule="evenodd" fill="#0101FE" d="M40.006,62.295c0.818-1.068,1.006-2.288,0.982-3.604
		c-0.046-2.547-0.013-5.097-0.013-7.744c-0.674-0.244-1.239-0.449-2.048-0.741c1.681,0,3.107,0,4.612,0
		c-0.569,0.328-1.287,0.51-1.562,0.961c-0.294,0.485-0.196,1.223-0.228,1.852c-0.126,2.543-0.166,5.095-0.398,7.628
		c-0.06,0.654-0.704,1.255-1.08,1.881C40.186,62.448,40.098,62.37,40.006,62.295z"/>
	<path fill-rule="evenodd" clip-rule="evenodd" fill="#038103" d="M21.307,89.521c0,0.344,0,0.687,0,1.03c-2.656,0-5.312,0-8.028,0
		c0-0.373,0-0.656,0-1.03C15.995,89.521,18.65,89.521,21.307,89.521z"/>
	<path fill-rule="evenodd" clip-rule="evenodd" fill="#0101FE" d="M98.295,79.3c0.27-0.627,0.54-1.255,0.81-1.882
		c0.089,0.071,0.178,0.141,0.267,0.211c-0.277,0.629-0.554,1.257-0.831,1.885C98.457,79.444,98.375,79.374,98.295,79.3z"/>
	<path fill-rule="evenodd" clip-rule="evenodd" fill="#0101FE" d="M137.075,86.447c-0.413,0.1-0.826,0.199-1.238,0.299l0.014,0.018
		c0.29-0.227,0.58-0.453,0.87-0.68C136.838,86.205,136.956,86.325,137.075,86.447z"/>
	<path fill-rule="evenodd" clip-rule="evenodd" fill="#0101FE" d="M99.104,77.418c0.116-0.272,0.232-0.546,0.348-0.818
		c0.08,0.074,0.161,0.146,0.244,0.217c-0.108,0.27-0.216,0.541-0.325,0.813C99.283,77.559,99.193,77.489,99.104,77.418z"/>
	<path fill-rule="evenodd" clip-rule="evenodd" fill="#0101FE" d="M97.949,80.117c0.116-0.272,0.231-0.545,0.346-0.817
		c0.08,0.074,0.162,0.145,0.246,0.214c-0.11,0.271-0.22,0.545-0.33,0.816C98.124,80.26,98.036,80.188,97.949,80.117z"/>
	<path fill-rule="evenodd" clip-rule="evenodd" fill="#0101FE" d="M168.207,84.637c-0.078,0.041-0.151,0.096-0.234,0.116
		c-0.027,0.006-0.075-0.075-0.113-0.116c0.077-0.041,0.152-0.096,0.233-0.116C168.12,84.515,168.168,84.596,168.207,84.637z"/>
	<path fill-rule="evenodd" clip-rule="evenodd" fill="#0101FE" d="M126.17,61.112c-0.078,0.042-0.152,0.095-0.234,0.116
		c-0.027,0.007-0.075-0.075-0.114-0.117c0.077-0.041,0.152-0.095,0.234-0.115C126.083,60.989,126.132,61.071,126.17,61.112z"/>
	<path fill-rule="evenodd" clip-rule="evenodd" fill="#0101FE" d="M77.527,61.165c-0.046,0.049-0.084,0.091-0.123,0.132
		c-0.039-0.082-0.092-0.161-0.109-0.248c-0.006-0.032,0.069-0.081,0.108-0.123C77.445,61.007,77.487,61.088,77.527,61.165z"/>
	<path fill-rule="evenodd" clip-rule="evenodd" fill="none" d="M234.957,117.381c2.45,0.083,3.852,1.024,4.193,2.725
		C237.122,120.427,235.926,119.683,234.957,117.381z"/>
	<path fill-rule="evenodd" clip-rule="evenodd" fill="none" d="M238.211,108.053c0.295,0.917,0.505,1.572,0.774,2.413
		c-1.091,0.521-2.019,0.963-3.359,1.603C236.263,110.396,236.602,109.116,238.211,108.053z"/>
	<path fill-rule="evenodd" clip-rule="evenodd" fill="none" d="M262.886,111.686c0.405-0.636,0.679-1.065,0.979-1.538
		c1.122,0.539,1.813,1.153,1.966,2.592C264.79,112.366,263.953,112.067,262.886,111.686z"/>
	<path fill-rule="evenodd" clip-rule="evenodd" fill="none" d="M20.167,108.214c-1.148,1.093-2.234,1.028-3.54,0.698
		c0.506-1.605,1.88-1.903,3.255-2.59C19.995,107.073,20.083,107.654,20.167,108.214z"/>
	<path fill-rule="evenodd" clip-rule="evenodd" fill="none" d="M60.24,111.805c0.088-0.434,0.083-0.701,0.197-0.9
		c0.146-0.253,0.387-0.454,0.612-0.704c1.093,0.44,1.739,1.1,1.951,2.522C61.971,112.38,61.13,112.102,60.24,111.805z"/>
	<path fill-rule="evenodd" clip-rule="evenodd" fill="none" d="M136.72,86.084c-0.29,0.227-0.58,0.453-0.87,0.68
		c-0.191-0.013-0.386-0.061-0.571-0.034c-2.88,0.407-4.221-0.798-4.956-3.628c-0.533-2.053-0.519-4.204,0.18-6.255
		c0.657-1.928,1.87-2.74,3.663-2.832c1.702-0.088,3.262,0.733,3.842,2.833C138.893,80.054,139.244,83.301,136.72,86.084z"/>
	<path fill-rule="evenodd" clip-rule="evenodd" fill="none" d="M66.133,80.129c0-1.877,0-3.639,0-5.465
		c1.353-0.368,2.581-0.522,3.561,0.642c0.833,0.987,0.851,2.189,0.348,3.243C69.31,80.084,67.865,80.375,66.133,80.129z"/>
	<path fill-rule="evenodd" clip-rule="evenodd" fill="none" d="M88.072,56.589c0-1.841,0-3.554,0-5.25
		c1.657-0.687,2.639-0.589,3.507,0.322c0.914,0.958,0.944,2.172,0.506,3.224C91.397,56.535,89.903,56.873,88.072,56.589z"/>
	<path fill-rule="evenodd" clip-rule="evenodd" fill="none" d="M156.346,56.579c0-1.89,0-3.605,0-5.376
		c1.311-0.458,2.515-0.602,3.543,0.514c0.727,0.79,0.918,2.47,0.361,3.41C159.373,56.603,158.013,56.849,156.346,56.579z"/>
	<path fill-rule="evenodd" clip-rule="evenodd" fill="none" d="M58.894,80.88c-0.255,1.153-0.359,2.456-0.842,3.599
		c-0.637,1.508-1.894,2.284-3.639,2.303c-1.727,0.02-2.772-0.845-3.419-2.289c-1.122-2.502-1.093-5.109-0.296-7.662
		c0.627-2.008,1.932-2.826,3.845-2.798c1.914,0.027,3.11,0.89,3.712,2.957C58.606,78.194,58.675,79.482,58.894,80.88z"/>
	<path fill-rule="evenodd" clip-rule="evenodd" fill="none" d="M53.738,56.943c0-2.039,0-3.896,0-5.849
		c1.373-0.359,2.686-0.476,3.613,0.841c0.839,1.193,0.879,2.552,0.239,3.833C56.791,57.365,55.327,57.133,53.738,56.943z"/>
	<path fill-rule="evenodd" clip-rule="evenodd" fill="none" d="M98.211,80.33c0.11-0.271,0.22-0.545,0.33-0.816
		c0.277-0.628,0.554-1.256,0.831-1.885c0.108-0.271,0.216-0.543,0.325-0.813c0.158-0.096,0.316-0.191,0.605-0.365
		c0.662,1.711,1.315,3.397,2.014,5.205c-1.513,0-2.901,0-4.37,0C98.039,81.189,98.125,80.76,98.211,80.33z"/>
</g>
</svg>
